<svg width="41" height="33" viewBox="0 0 41 33" fill="none" xmlns="http://www.w3.org/2000/svg">
<path d="M23.3296 33H38.6901V16.8462H31.6451C32.03 14.5385 33.031 12.5385 34.6479 10.8461C36.2648 9.15384 38.3822 7.99999 41 7.38461V0C35.1484 1.23077 30.7211 3.84615 27.7183 7.84615C24.7925 11.8462 23.3296 16.9231 23.3296 23.0769V33ZM0 33H15.2451V16.8462H8.2C8.58498 14.5385 9.58591 12.5385 11.2028 10.8461C12.8197 9.15384 14.9371 7.99999 17.5549 7.38461V0C11.7803 1.23077 7.39155 3.84615 4.38873 7.84615C1.46291 11.8462 0 16.9231 0 23.0769V33Z" fill="#3D88F8"/>
</svg>
