<svg width="49" height="48" viewBox="0 0 49 48" fill="none" xmlns="http://www.w3.org/2000/svg">
<path d="M24.934 14.04C19.434 14.04 14.934 18.53 14.934 24.06C14.934 29.06 18.594 33.21 23.374 33.96V26.96H20.834V24.06H23.374V21.85C23.374 19.34 24.864 17.96 27.154 17.96C28.244 17.96 29.384 18.15 29.384 18.15V20.62H28.124C26.884 20.62 26.494 21.39 26.494 22.18V24.06H29.274L28.824 26.96H26.494V33.96C28.8504 33.5879 30.9962 32.3856 32.5439 30.5701C34.0916 28.7546 34.9393 26.4457 34.934 24.06C34.934 18.53 30.434 14.04 24.934 14.04Z" fill="#707683"/>
<rect x="1.43396" y="0.5" width="47" height="47" rx="23.5" stroke="#C2CFE0" stroke-opacity="0.4"/>
</svg>
