<svg width="76" height="94" viewBox="0 0 76 94" fill="none" xmlns="http://www.w3.org/2000/svg">
<path d="M52.4103 31.3281V24.4609C52.4103 20.7461 50.9337 17.1875 48.3087 14.5586C45.6837 11.9336 42.1212 10.4609 38.4103 10.4609H37.5002C29.7697 10.4609 23.5002 16.7265 23.5002 24.4609V31.3203C19.9885 31.6015 16.4846 31.9765 12.9882 32.4492V24.4492C12.9999 17.9492 15.5937 11.7192 20.203 7.13315C24.8085 2.54725 31.051 -0.0191455 37.551 0.000354457H38.4611C44.9455 0.00816646 51.1601 2.58625 55.7461 7.17225C60.332 11.7582 62.9102 17.9773 62.9219 24.4613V32.4613C59.4258 31.9808 55.9219 31.6019 52.4099 31.3285L52.4103 31.3281ZM5.51234 42.3281C26.9853 38.2656 49.0353 38.2656 70.5123 42.3281C73.3912 42.8749 75.4693 45.3984 75.4498 48.3281V85.2111C75.4498 87.84 73.5826 90.0977 71.0006 90.59L67.6725 91.2189C57.8873 93.0705 47.9575 94.0001 38.0005 94.0001C28.0513 94.0001 18.1255 93.0704 8.35254 91.2189L5.00094 90.59C2.41504 90.1017 0.543939 87.84 0.540039 85.2111V47.7811C0.543946 45.1483 2.41504 42.8905 5.00094 42.3983L5.51234 42.3281ZM31.8713 76.7501C35.8127 78.2892 40.1877 78.2892 44.1293 76.7501C44.8325 76.4844 45.184 75.7032 44.9223 75.0001L41.7309 66.0001C43.7309 64.4142 44.5121 61.7345 43.6723 59.3243C42.8325 56.9141 40.559 55.297 38.0043 55.297C35.4535 55.297 33.1762 56.9142 32.3402 59.3243C31.5004 61.7345 32.2777 64.4141 34.2816 66.0001L31.0902 75.0001C30.8246 75.6993 31.1722 76.4806 31.8715 76.7501H31.8713Z" fill="#FF3864"/>
</svg>
