<svg width="40" height="47" viewBox="0 0 40 47" fill="none" xmlns="http://www.w3.org/2000/svg">
<path fill-rule="evenodd" clip-rule="evenodd" d="M34.3784 0C37.4831 0 40 2.51688 40 5.62162V26.4268L8.44372 7.46589C7.23494 6.73958 5.67195 7.11297 4.9192 8.29572L4.88341 8.35358C4.1571 9.56236 4.53048 11.1254 5.71324 11.8781L5.7711 11.9139L40 32.4808V40.4324C40 43.5371 37.4831 46.054 34.3784 46.054H5.62165C2.51692 46.054 3.85661e-05 43.5371 3.85661e-05 40.4324L0 20.6497L31.5018 39.5782C32.7106 40.3045 34.2736 39.9311 35.0264 38.7484L35.0621 38.6905C35.8002 37.4622 35.4027 35.8682 34.1745 35.1302L0 14.5959L3.85661e-05 5.62162C3.85661e-05 2.51688 2.51692 0 5.62165 0H34.3784Z" fill="#3D88F8"/>
</svg>
