<svg width="56" height="56" viewBox="0 0 56 56" fill="none" xmlns="http://www.w3.org/2000/svg">
<rect width="56" height="56" rx="12" fill="#3D88F8"/>
<path d="M33.81 20.47C33.73 20.47 33.65 20.45 33.58 20.41C31.66 19.42 30 19 28.01 19C26.03 19 24.15 19.47 22.44 20.41C22.2 20.54 21.9 20.45 21.76 20.21C21.63 19.97 21.72 19.66 21.96 19.53C23.82 18.52 25.86 18 28.01 18C30.14 18 32 18.47 34.04 19.52C34.29 19.65 34.38 19.95 34.25 20.19C34.16 20.37 33.99 20.47 33.81 20.47ZM19.5 25.72C19.4 25.72 19.3 25.69 19.21 25.63C18.98 25.47 18.93 25.16 19.09 24.93C20.08 23.53 21.34 22.43 22.84 21.66C25.98 20.04 30 20.03 33.15 21.65C34.65 22.42 35.91 23.51 36.9 24.9C37.06 25.12 37.01 25.44 36.78 25.6C36.55 25.76 36.24 25.71 36.08 25.48C35.18 24.22 34.04 23.23 32.69 22.54C29.82 21.07 26.15 21.07 23.29 22.55C21.93 23.25 20.79 24.25 19.89 25.51C19.81 25.65 19.66 25.72 19.5 25.72ZM25.75 37.79C25.62 37.79 25.49 37.74 25.4 37.64C24.53 36.77 24.06 36.21 23.39 35C22.7 33.77 22.34 32.27 22.34 30.66C22.34 27.69 24.88 25.27 28 25.27C31.12 25.27 33.66 27.69 33.66 30.66C33.66 30.94 33.44 31.16 33.16 31.16C32.88 31.16 32.66 30.94 32.66 30.66C32.66 28.24 30.57 26.27 28 26.27C25.43 26.27 23.34 28.24 23.34 30.66C23.34 32.1 23.66 33.43 24.27 34.51C24.91 35.66 25.35 36.15 26.12 36.93C26.31 37.13 26.31 37.44 26.12 37.64C26.01 37.74 25.88 37.79 25.75 37.79ZM32.92 35.94C31.73 35.94 30.68 35.64 29.82 35.05C28.33 34.04 27.44 32.4 27.44 30.66C27.44 30.38 27.66 30.16 27.94 30.16C28.22 30.16 28.44 30.38 28.44 30.66C28.44 32.07 29.16 33.4 30.38 34.22C31.09 34.7 31.92 34.93 32.92 34.93C33.16 34.93 33.56 34.9 33.96 34.83C34.23 34.78 34.49 34.96 34.54 35.24C34.59 35.51 34.41 35.77 34.13 35.82C33.56 35.93 33.06 35.94 32.92 35.94ZM30.91 38C30.87 38 30.82 37.99 30.78 37.98C29.19 37.54 28.15 36.95 27.06 35.88C25.66 34.49 24.89 32.64 24.89 30.66C24.89 29.04 26.27 27.72 27.97 27.72C29.67 27.72 31.05 29.04 31.05 30.66C31.05 31.73 31.98 32.6 33.13 32.6C34.28 32.6 35.21 31.73 35.21 30.66C35.21 26.89 31.96 23.83 27.96 23.83C25.12 23.83 22.52 25.41 21.35 27.86C20.96 28.67 20.76 29.62 20.76 30.66C20.76 31.44 20.83 32.67 21.43 34.27C21.53 34.53 21.4 34.82 21.14 34.91C20.88 35.01 20.59 34.87 20.5 34.62C20.01 33.31 19.77 32.01 19.77 30.66C19.77 29.46 20 28.37 20.45 27.42C21.78 24.63 24.73 22.82 27.96 22.82C32.51 22.82 36.21 26.33 36.21 30.65C36.21 32.27 34.83 33.59 33.13 33.59C31.43 33.59 30.05 32.27 30.05 30.65C30.05 29.58 29.12 28.71 27.97 28.71C26.82 28.71 25.89 29.58 25.89 30.65C25.89 32.36 26.55 33.96 27.76 35.16C28.71 36.1 29.62 36.62 31.03 37.01C31.3 37.08 31.45 37.36 31.38 37.62C31.33 37.85 31.12 38 30.91 38Z" fill="white"/>
</svg>
