<?xml version="1.0" standalone="no"?>
<!DOCTYPE svg PUBLIC "-//W3C//DTD SVG 20010904//EN"
 "http://www.w3.org/TR/2001/REC-SVG-20010904/DTD/svg10.dtd">
<svg version="1.0" xmlns="http://www.w3.org/2000/svg"
 width="700.000000pt" height="700.000000pt" viewBox="0 0 700.000000 700.000000"
 preserveAspectRatio="xMidYMid meet">
<metadata>
Created by potrace 1.11, written by Peter Selinger 2001-2013
</metadata>
<g transform="translate(0.000000,700.000000) scale(0.100000,-0.100000)"
fill="#000000" stroke="none">
<path d="M6645 6841 c6 -11 4 -13 -8 -8 -9 3 -23 -1 -32 -9 -11 -12 -15 -12
-15 -2 0 8 -3 9 -8 3 -4 -5 -16 -11 -27 -13 -20 -3 -53 -15 -89 -34 -12 -6
-16 -6 -12 1 4 7 1 8 -8 5 -9 -3 -16 -10 -16 -14 0 -4 -11 -6 -25 -5 -14 2
-23 -1 -19 -6 3 -5 -5 -9 -18 -9 -13 0 -30 -6 -37 -12 -11 -10 -12 -10 -7 -1
5 9 2 11 -8 7 -9 -3 -14 -9 -12 -13 3 -4 -8 -7 -22 -6 -15 0 -26 -4 -25 -10 1
-5 -13 -10 -30 -10 -18 1 -42 -5 -54 -13 -13 -8 -23 -10 -23 -6 0 5 -5 2 -10
-6 -8 -12 -10 -12 -10 -1 0 11 -3 11 -15 1 -8 -6 -20 -8 -27 -4 -10 6 -11 5
-1 -7 11 -13 9 -15 -10 -14 -12 1 -28 -3 -36 -9 -12 -9 -13 -8 -6 4 8 13 6 13
-8 2 -9 -8 -21 -11 -27 -7 -5 3 -10 1 -10 -4 0 -6 -7 -11 -15 -11 -8 0 -15 -6
-15 -12 0 -9 -4 -8 -10 2 -7 12 -10 12 -10 1 0 -7 -6 -11 -15 -7 -8 3 -15 1
-15 -5 0 -6 -5 -7 -11 -4 -6 4 -17 -1 -25 -11 -9 -11 -13 -13 -9 -6 8 15 -7
16 -23 0 -7 -7 -12 -8 -12 -4 0 5 -8 2 -17 -5 -14 -12 -16 -12 -9 1 6 13 6 13
-6 0 -7 -9 -23 -15 -35 -14 -12 1 -20 -3 -17 -7 3 -5 -5 -9 -18 -9 -13 0 -30
-6 -37 -12 -8 -7 -11 -8 -8 -2 3 6 0 11 -7 11 -8 0 -12 -6 -9 -14 4 -9 0 -11
-11 -7 -10 4 -16 1 -16 -7 0 -11 -2 -11 -9 -1 -6 10 -10 10 -21 -2 -7 -9 -16
-13 -21 -10 -5 3 -24 -2 -43 -11 -19 -9 -39 -14 -45 -11 -5 4 -13 1 -16 -5 -4
-5 -14 -8 -22 -5 -8 3 -12 2 -10 -2 3 -4 -5 -16 -16 -27 -11 -11 -16 -14 -12
-6 5 9 4 12 -3 7 -7 -4 -12 -14 -12 -22 0 -8 -5 -14 -11 -14 -5 0 -7 -4 -4
-10 4 -6 -1 -7 -11 -3 -11 4 -15 2 -11 -4 4 -6 -5 -18 -19 -28 -14 -9 -23 -22
-21 -30 4 -8 -1 -11 -13 -8 -10 3 -21 -1 -25 -8 -6 -8 -4 -10 6 -4 8 5 -3 -8
-23 -27 -20 -20 -34 -39 -30 -43 4 -4 0 -5 -8 -3 -9 2 -14 -3 -12 -11 3 -12 0
-12 -13 -1 -13 11 -15 10 -10 -2 7 -19 -20 -42 -37 -32 -9 6 -9 3 1 -10 12
-15 12 -17 0 -14 -8 2 -13 -3 -11 -12 2 -8 1 -12 -3 -9 -8 8 -49 -32 -59 -56
-5 -15 -9 -15 -23 -4 -13 11 -15 11 -9 1 9 -15 -38 -64 -50 -53 -4 3 -4 1 -1
-5 7 -12 -28 -46 -38 -36 -3 4 -3 -2 1 -13 4 -11 4 -17 -1 -13 -4 4 -16 -4
-27 -17 -11 -14 -24 -23 -29 -19 -5 3 -9 2 -8 -3 1 -4 1 -15 0 -23 -1 -13 -2
-13 -11 0 -6 10 -10 11 -10 3 0 -18 -32 -53 -42 -47 -5 3 -8 2 -7 -3 4 -23 -3
-31 -22 -28 -18 4 -19 2 -7 -12 8 -11 9 -14 1 -10 -7 5 -17 -1 -23 -13 -6 -11
-15 -18 -21 -15 -5 4 -9 3 -8 -2 1 -4 1 -14 0 -22 -1 -11 -4 -11 -18 0 -9 8
-14 9 -10 2 8 -12 -102 -133 -121 -133 -7 0 -12 -8 -12 -19 0 -11 -9 -21 -21
-24 -13 -4 -18 -10 -13 -18 4 -8 3 -10 -5 -5 -6 4 -14 0 -17 -8 -3 -9 -11 -13
-18 -9 -6 4 -5 -1 3 -10 12 -15 12 -17 -1 -12 -9 4 -18 -1 -22 -10 -3 -9 -11
-13 -16 -10 -6 4 -9 1 -8 -7 2 -7 -4 -12 -12 -10 -8 2 -12 0 -8 -3 11 -12
-161 -177 -175 -168 -7 4 -5 -2 3 -12 9 -11 10 -16 3 -11 -9 5 -13 1 -13 -11
0 -15 -2 -16 -10 -3 -8 13 -10 12 -10 -2 0 -10 -4 -18 -10 -18 -5 0 -10 -6
-10 -14 0 -10 -7 -13 -20 -11 -11 2 -18 0 -15 -5 3 -4 2 -16 -1 -25 -5 -13 -8
-14 -15 -3 -7 10 -9 10 -9 -3 0 -20 -34 -52 -44 -42 -4 5 -6 1 -4 -7 1 -8 -3
-14 -10 -12 -6 1 -11 -1 -10 -5 2 -5 -19 -30 -45 -56 -26 -27 -47 -53 -47 -58
0 -5 -7 -9 -15 -9 -8 0 -15 -7 -15 -15 0 -8 -7 -15 -15 -15 -8 0 -15 -5 -15
-11 0 -5 -4 -8 -9 -4 -5 3 -12 1 -16 -5 -3 -5 0 -10 7 -10 7 -1 -3 -9 -22 -20
-19 -11 -29 -19 -21 -20 8 0 1 -10 -17 -23 -17 -13 -28 -27 -24 -31 4 -4 0 -6
-8 -4 -8 2 -14 -2 -13 -9 2 -7 -4 -10 -13 -6 -8 3 -14 1 -12 -5 4 -12 -73 -87
-86 -84 -5 2 -6 -3 -4 -10 3 -7 -4 -21 -14 -30 -20 -20 -25 -10 -5 12 10 12 9
12 -5 1 -10 -7 -18 -20 -18 -28 0 -8 -5 -11 -11 -8 -6 4 -13 -2 -16 -14 -3
-12 -10 -21 -15 -21 -5 0 -6 -4 -3 -10 3 -6 -1 -7 -10 -4 -9 4 -15 2 -13 -3 2
-6 -21 -33 -50 -61 -33 -32 -51 -56 -46 -63 4 -8 3 -9 -5 -5 -13 8 -44 -12
-36 -23 2 -4 -6 -7 -17 -6 -12 1 -25 10 -29 21 -4 10 -8 15 -8 10 -1 -5 -13 3
-27 17 -14 14 -23 31 -19 36 3 7 0 8 -9 5 -11 -4 -16 0 -16 10 0 9 -3 15 -8
13 -10 -3 -52 41 -52 56 0 8 -4 7 -10 -3 -9 -13 -10 -13 -11 0 -1 8 -1 18 0
23 0 4 -6 7 -14 7 -9 0 -20 10 -25 23 -5 12 -9 18 -9 14 -1 -5 -18 10 -40 32
-21 22 -42 37 -46 33 -5 -4 -5 -1 -1 5 4 8 -2 17 -18 24 -14 7 -23 16 -20 21
3 4 -2 11 -10 14 -9 3 -16 12 -16 19 0 8 -9 16 -19 20 -11 3 -22 13 -25 21 -3
9 -11 12 -17 8 -7 -4 -10 -3 -7 2 8 12 -17 35 -28 26 -4 -4 -4 -1 0 6 4 7 1
15 -8 18 -9 3 -16 13 -16 21 0 8 -5 11 -11 8 -6 -4 -13 2 -16 13 -3 14 -10 19
-21 15 -9 -4 -13 -2 -9 4 4 6 -7 21 -23 33 -16 12 -27 28 -23 34 3 6 3 8 -1 5
-10 -9 -69 49 -61 61 3 6 0 7 -9 4 -9 -4 -18 1 -22 10 -3 9 -11 13 -17 9 -6
-3 -7 -1 -3 5 4 6 -4 17 -18 24 -14 7 -25 16 -25 21 -1 4 -1 12 -1 17 0 6 -7
10 -15 10 -8 0 -15 5 -15 11 0 5 -6 7 -12 3 -8 -5 -7 0 2 11 9 11 10 16 2 11
-17 -10 -117 88 -107 105 6 8 4 10 -4 5 -14 -9 -51 21 -51 41 0 8 -4 12 -9 9
-5 -3 -11 1 -15 9 -3 8 -13 15 -21 15 -9 0 -14 4 -11 9 3 5 -1 11 -9 15 -8 3
-15 13 -15 22 0 10 -3 15 -6 12 -8 -9 -66 51 -59 62 3 5 0 7 -8 4 -13 -5 -32
10 -39 31 -1 5 -9 9 -15 7 -12 -3 -18 10 -14 31 1 5 -3 6 -9 2 -5 -3 -10 2
-10 11 0 10 -3 15 -6 12 -6 -7 -51 33 -52 46 0 5 -11 14 -24 21 -13 6 -22 17
-20 24 1 7 -2 10 -7 7 -5 -3 -11 1 -15 9 -3 8 -13 15 -21 15 -9 0 -14 4 -10 9
3 6 -4 15 -15 21 -11 6 -17 16 -14 22 4 7 3 8 -4 4 -8 -4 -12 0 -12 11 0 15
-2 16 -10 3 -5 -8 -10 -10 -10 -4 0 16 -55 74 -70 74 -7 0 -10 3 -7 7 4 3 -1
12 -11 20 -9 8 -11 11 -3 7 9 -5 12 -3 7 5 -4 6 -11 9 -16 6 -11 -7 -32 20
-22 30 4 5 1 5 -5 1 -9 -5 -13 -1 -13 11 0 15 -2 16 -10 3 -8 -13 -10 -13 -10
2 0 10 -8 22 -18 27 -10 5 -24 21 -31 35 -8 14 -19 24 -25 23 -6 -1 -10 6 -10
15 1 10 -4 14 -12 11 -8 -3 -14 0 -14 6 0 6 -7 11 -16 11 -8 0 -13 3 -11 8 5
9 -50 62 -57 54 -3 -3 -6 1 -6 9 0 16 -34 49 -50 49 -6 0 -9 5 -7 12 1 6 -8
17 -20 23 -13 7 -20 15 -16 18 3 4 1 7 -5 7 -6 0 -14 9 -17 21 -6 17 -9 18
-23 7 -10 -7 -14 -9 -10 -4 10 12 -11 48 -23 41 -5 -4 -9 1 -9 10 0 9 -4 13
-10 10 -5 -3 -10 0 -10 7 0 7 -10 19 -21 27 -20 12 -21 11 -15 -5 6 -15 1 -13
-20 6 -15 14 -23 18 -19 10 7 -12 6 -13 -6 -4 -15 12 -61 26 -93 30 -10 1 -21
6 -25 11 -3 6 -16 9 -29 8 -14 -1 -21 3 -19 10 3 7 -6 10 -24 9 -16 -1 -36 4
-44 12 -16 16 -29 19 -20 4 3 -6 -1 -7 -9 -4 -9 3 -16 11 -16 16 0 6 -6 5 -15
-2 -12 -10 -16 -9 -21 4 -4 9 -18 16 -34 16 -17 0 -31 7 -35 18 -7 16 -8 15
-15 -3 -8 -18 -9 -18 -9 -2 -1 11 -6 15 -12 11 -6 -3 -15 0 -20 7 -7 11 -9 11
-9 1 0 -11 -3 -10 -14 1 -8 8 -25 14 -38 13 -27 -2 -49 14 -40 29 3 6 -1 4
-10 -3 -10 -8 -18 -9 -22 -3 -4 6 -13 8 -20 5 -8 -3 -17 0 -22 7 -5 8 -3 10 6
4 9 -5 11 -4 6 4 -6 9 -11 9 -21 1 -9 -8 -15 -8 -20 0 -3 5 -17 10 -30 10 -13
0 -26 6 -28 13 -4 9 -6 9 -6 -1 -1 -10 -5 -10 -17 2 -8 9 -20 14 -25 11 -5 -4
-9 -2 -9 4 0 5 -9 8 -20 6 -11 -2 -20 2 -20 8 0 7 -4 6 -10 -3 -8 -13 -10 -12
-10 2 0 10 -3 17 -7 17 -28 -4 -73 3 -68 10 3 6 -3 10 -12 10 -39 1 -53 5 -53
13 0 4 -11 8 -24 8 -13 0 -27 6 -29 13 -4 10 -6 10 -6 0 -1 -7 -6 -13 -12 -13
-5 0 -8 4 -5 9 3 5 -3 11 -14 14 -12 3 -17 1 -14 -5 3 -5 -3 -4 -14 3 -12 7
-18 18 -15 24 3 5 0 5 -7 -2 -9 -8 -19 -9 -31 -2 -15 8 -17 6 -14 -12 2 -12
10 -28 17 -37 11 -13 11 -14 -2 -7 -13 8 -13 6 -2 -8 8 -9 11 -20 8 -26 -4 -5
1 -16 9 -24 8 -9 15 -27 15 -42 0 -14 4 -24 9 -21 4 3 7 -6 5 -19 -1 -14 2
-27 6 -30 5 -3 6 -13 3 -22 -4 -11 -3 -14 5 -9 13 8 13 7 16 -39 1 -16 8 -40
14 -52 7 -13 9 -23 5 -23 -4 0 -1 -4 7 -10 8 -5 15 -24 16 -42 3 -48 3 -50 13
-44 5 4 8 -2 6 -11 -1 -10 3 -24 9 -32 9 -12 8 -13 -2 -7 -11 7 -12 4 -3 -11
6 -11 7 -24 3 -28 -4 -5 -1 -5 6 -1 7 4 9 12 6 18 -4 6 -2 8 3 5 6 -4 9 -20 7
-36 -2 -17 1 -33 6 -36 15 -9 12 -27 -2 -20 -7 4 -5 0 6 -9 10 -8 16 -22 13
-30 -3 -8 -1 -16 5 -18 6 -2 12 -19 15 -38 2 -19 7 -36 11 -39 9 -7 14 -29 14
-58 0 -13 4 -20 9 -17 5 3 9 -9 9 -26 0 -17 4 -29 9 -25 6 3 8 -3 6 -15 -2
-11 1 -22 6 -25 5 -4 7 -11 4 -16 -4 -5 -1 -9 6 -9 9 0 9 -3 0 -14 -9 -10 -8
-15 4 -19 8 -4 12 -13 9 -22 -3 -8 -2 -15 4 -15 5 0 13 -7 16 -16 3 -8 2 -12
-4 -9 -6 3 -10 1 -10 -4 0 -6 8 -11 18 -11 9 0 13 -4 7 -8 -13 -9 -18 -35 -5
-27 5 3 10 -2 11 -12 2 -46 7 -65 19 -76 10 -10 11 -9 5 2 -6 10 -4 12 4 7 9
-6 9 -11 0 -22 -9 -11 -9 -14 0 -14 7 0 9 -4 6 -10 -4 -6 1 -7 11 -3 11 4 15
3 10 -5 -3 -6 3 -17 14 -25 11 -7 17 -17 13 -20 -3 -4 1 -7 11 -7 9 0 19 -7
22 -15 3 -8 15 -17 25 -20 17 -6 18 -9 7 -23 -7 -10 -9 -14 -4 -10 10 8 51
-11 42 -19 -3 -4 4 -11 17 -18 12 -6 21 -17 20 -23 -2 -7 3 -12 11 -12 8 0 17
-9 21 -20 3 -11 11 -19 17 -17 6 1 17 -8 23 -20 7 -13 14 -21 17 -18 3 3 13
-6 22 -20 9 -14 21 -23 26 -20 6 3 7 -1 4 -10 -4 -10 -2 -15 7 -13 8 2 13 -3
12 -9 -2 -7 1 -13 7 -13 16 0 50 -33 50 -50 0 -13 1 -13 10 0 9 13 10 13 11 0
1 -8 1 -18 0 -22 0 -5 5 -8 13 -8 8 0 18 -9 21 -20 4 -11 10 -18 15 -15 5 3
14 -4 20 -15 6 -11 15 -18 19 -15 5 2 14 -9 21 -25 7 -16 16 -27 21 -25 4 3
13 -4 19 -15 6 -11 15 -18 19 -16 4 3 13 -6 20 -20 7 -16 16 -22 24 -18 6 4 9
3 4 -1 -4 -5 4 -16 19 -25 14 -10 25 -20 24 -24 -2 -12 27 -35 35 -28 5 4 5 1
1 -6 -4 -7 -1 -15 8 -18 9 -3 16 -12 16 -20 0 -8 4 -13 8 -11 10 2 72 -61 72
-74 0 -5 5 -9 10 -9 19 0 81 -70 74 -83 -5 -8 -2 -7 9 2 15 12 17 12 11 -4 -5
-13 -4 -16 4 -11 7 4 12 2 12 -4 0 -6 5 -8 10 -5 6 4 9 2 8 -3 -2 -5 10 -21
25 -36 15 -14 26 -30 22 -36 -3 -5 4 -7 15 -5 14 3 20 -1 20 -16 0 -10 5 -19
11 -19 5 0 7 -6 3 -12 -6 -10 -4 -10 8 0 14 11 17 10 23 -7 3 -11 20 -30 36
-42 18 -13 28 -27 25 -36 -3 -8 -1 -11 5 -8 14 9 40 -15 32 -29 -3 -6 -3 -8 1
-4 5 4 25 -11 46 -32 21 -21 41 -36 45 -32 4 4 5 2 3 -3 -2 -6 27 -40 63 -77
37 -37 64 -69 61 -72 -3 -3 2 -6 12 -6 9 0 14 -5 11 -10 -4 -6 -3 -10 2 -9 22
4 33 -3 33 -21 0 -11 3 -19 8 -18 4 1 21 -10 37 -26 17 -16 24 -26 16 -21 -10
6 -12 4 -7 -4 5 -7 14 -10 22 -7 7 3 16 0 20 -6 5 -7 2 -9 -7 -4 -8 4 -4 -1 8
-10 13 -9 23 -23 23 -30 0 -8 3 -13 8 -13 22 4 33 -3 30 -18 -2 -10 3 -18 9
-18 15 0 78 -67 75 -78 -1 -5 2 -6 8 -2 5 3 10 -2 10 -12 0 -15 2 -16 10 -3 8
13 10 12 10 -3 0 -10 7 -20 15 -23 8 -4 12 -10 9 -15 -3 -5 5 -9 17 -9 12 0
19 -3 16 -6 -4 -4 3 -15 14 -25 12 -10 18 -22 15 -28 -4 -5 3 -7 16 -3 14 3
19 2 14 -6 -4 -7 -1 -12 9 -12 9 0 13 -4 10 -10 -3 -5 5 -15 19 -21 14 -7 23
-16 20 -20 -2 -4 5 -13 16 -19 11 -6 17 -16 14 -22 -4 -7 -3 -8 4 -4 7 4 12 2
12 -4 0 -6 4 -8 10 -5 14 9 12 -8 -2 -24 -11 -11 -10 -12 1 -6 10 6 12 4 7 -4
-5 -7 -14 -10 -21 -7 -9 3 -12 -2 -10 -14 2 -11 -1 -19 -8 -17 -7 1 -11 -4 -9
-12 3 -12 0 -12 -11 -2 -12 9 -15 8 -13 -6 0 -11 -5 -17 -16 -17 -10 1 -15 -3
-12 -8 6 -10 -53 -68 -68 -68 -5 0 -6 -4 -3 -10 3 -5 1 -10 -4 -10 -6 0 -11
-8 -11 -17 0 -15 -2 -16 -10 -3 -9 13 -10 13 -10 -1 0 -17 -45 -61 -54 -52 -3
4 -6 1 -6 -5 0 -17 -59 -74 -70 -67 -6 4 -7 -1 -3 -11 4 -12 3 -15 -5 -10 -7
4 -12 1 -12 -7 0 -16 -54 -70 -62 -62 -3 3 -11 -8 -18 -24 -8 -21 -17 -28 -28
-24 -9 4 -13 2 -8 -5 3 -6 -3 -17 -14 -25 -11 -7 -17 -18 -12 -23 4 -4 -2 -2
-12 6 -13 10 -17 10 -12 3 4 -8 2 -13 -5 -13 -7 0 -10 -3 -6 -6 8 -9 -32 -46
-43 -39 -6 4 -7 -1 -3 -11 4 -12 3 -15 -5 -10 -7 4 -12 1 -12 -9 0 -8 -13 -23
-29 -33 -15 -9 -29 -21 -30 -27 -1 -5 -21 -28 -44 -50 -22 -22 -37 -33 -32
-26 6 10 4 12 -4 7 -7 -5 -10 -15 -7 -23 3 -8 2 -12 -3 -9 -4 3 -17 -2 -27
-10 -10 -9 -12 -13 -4 -9 8 4 6 -1 -4 -9 -11 -9 -24 -16 -29 -16 -4 0 -5 -4
-2 -10 3 -5 1 -10 -5 -10 -6 0 -9 -4 -6 -9 4 -5 -4 -7 -16 -5 -13 2 -18 2 -11
-2 10 -4 10 -8 0 -19 -7 -7 -16 -10 -21 -7 -5 3 -6 -2 -3 -12 4 -10 3 -15 -3
-11 -6 3 -10 1 -10 -5 0 -6 -5 -8 -10 -5 -5 3 -10 2 -10 -2 0 -5 -7 -18 -16
-29 -8 -10 -13 -12 -9 -4 7 16 -7 1 -33 -37 -7 -10 -9 -11 -5 -3 6 13 5 13
-11 1 -13 -11 -14 -16 -4 -23 8 -5 4 -7 -12 -4 -14 2 -24 9 -22 15 1 6 -3 11
-10 11 -6 0 -8 3 -5 7 4 3 -1 15 -10 26 -11 12 -12 17 -4 12 10 -5 12 -4 7 3
-4 7 -15 12 -24 12 -10 0 -13 3 -7 8 15 10 18 35 4 26 -9 -5 -10 -2 -6 9 3 9
1 19 -5 23 -7 5 -8 2 -3 -7 5 -8 4 -11 0 -6 -5 4 -11 20 -13 35 -2 15 -9 30
-15 34 -7 4 -8 8 -3 8 4 0 1 11 -8 25 -9 14 -14 30 -11 35 3 6 2 10 -3 10 -5
0 -8 10 -7 23 1 12 -5 31 -14 41 -13 16 -13 18 -1 11 12 -7 13 -6 4 6 -6 8
-10 22 -9 31 2 10 -2 15 -9 12 -8 -3 -12 3 -11 18 1 13 -2 31 -7 42 -7 14 -7
16 2 11 9 -6 9 -3 1 13 -6 11 -11 30 -11 41 0 12 -6 21 -12 21 -9 0 -8 4 2 10
12 8 12 10 1 10 -11 0 -11 3 0 17 12 14 12 16 0 8 -11 -6 -13 -4 -8 8 3 10 2
17 -3 17 -6 0 -10 5 -10 11 0 5 4 8 9 4 5 -3 13 0 17 6 4 7 3 10 -2 7 -5 -3
-15 0 -22 8 -7 8 -8 14 -3 14 6 0 6 11 1 30 -5 18 -5 32 1 36 6 4 6 10 0 18
-7 9 -7 16 0 23 8 8 7 13 -2 18 -8 6 -10 4 -4 -5 5 -9 4 -11 -4 -6 -6 4 -8 13
-4 19 11 18 14 49 5 43 -5 -3 -9 1 -9 9 0 8 4 12 8 10 4 -3 5 4 2 15 -3 12 0
20 8 20 7 0 9 3 6 6 -4 4 -14 1 -22 -6 -13 -11 -16 -11 -13 1 3 12 -30 14
-199 14 -111 1 -205 4 -209 8 -9 9 -35 -13 -28 -24 3 -5 0 -9 -6 -9 -6 0 -8
-5 -4 -12 4 -7 7 -32 7 -55 -1 -30 2 -41 10 -36 7 4 6 -1 -2 -10 -11 -14 -11
-17 0 -17 9 0 10 -3 4 -8 -12 -9 -15 -62 -4 -62 5 0 9 -5 9 -11 0 -5 -6 -7
-13 -3 -9 6 -9 4 1 -8 7 -9 13 -48 15 -91 1 -41 5 -73 10 -70 7 4 8 1 11 -52
0 -16 8 -33 16 -37 12 -5 11 -7 -3 -7 -10 -1 -15 -6 -12 -11 4 -6 10 -8 14 -6
4 3 6 -7 6 -22 -1 -15 4 -33 9 -41 9 -12 8 -13 -4 -6 -10 5 -8 1 4 -13 10 -12
16 -28 13 -36 -4 -9 -2 -18 4 -22 6 -4 6 -11 -2 -20 -10 -12 -10 -15 2 -12 9
2 14 -5 13 -19 -1 -13 3 -20 9 -16 6 4 8 0 4 -10 -3 -10 -2 -17 3 -17 6 0 10
-5 10 -11 0 -5 -5 -7 -12 -3 -7 4 -1 -8 12 -26 13 -19 18 -30 9 -26 -7 4 -6 1
3 -7 10 -8 15 -17 11 -21 -4 -4 -1 -11 7 -16 11 -7 12 -10 2 -10 -7 0 -10 -5
-7 -10 4 -6 11 -7 17 -4 7 4 8 2 4 -5 -4 -6 0 -23 9 -37 9 -13 13 -29 10 -33
-3 -5 2 -16 11 -25 8 -9 12 -21 8 -27 -5 -8 -3 -9 6 -4 8 5 11 3 8 -6 -3 -8 2
-20 11 -27 9 -8 10 -10 2 -6 -10 5 -8 -2 5 -24 13 -23 21 -28 27 -19 6 8 7 6
3 -7 -4 -11 1 -27 11 -39 10 -11 12 -17 6 -13 -7 4 -13 2 -13 -3 0 -6 7 -11
16 -11 8 0 13 -4 9 -10 -3 -5 3 -18 15 -30 12 -12 15 -20 8 -20 -9 0 -8 -3 2
-9 8 -6 17 -8 20 -6 3 2 7 -5 8 -16 4 -44 6 -49 22 -54 8 -3 16 -15 17 -26 1
-12 7 -27 13 -33 8 -8 9 -6 4 9 l-7 20 16 -20 c9 -11 17 -26 17 -33 0 -7 12
-25 28 -39 15 -14 18 -19 7 -12 -16 11 -15 8 4 -13 13 -15 27 -26 30 -24 3 2
7 -12 9 -32 1 -19 0 -33 -4 -30 -3 4 -21 -9 -39 -28 -18 -19 -39 -34 -45 -34
-7 0 -10 -7 -6 -15 3 -8 1 -15 -4 -15 -6 0 -29 -19 -52 -42 -24 -24 -46 -42
-51 -40 -4 1 -6 -4 -5 -10 2 -7 -5 -12 -14 -12 -9 1 -14 -4 -12 -11 3 -7 -2
-15 -11 -19 -9 -3 -14 -10 -11 -14 3 -5 -6 -14 -19 -20 -14 -7 -25 -16 -25
-22 0 -5 -7 -10 -16 -10 -8 0 -13 -4 -9 -9 7 -12 -29 -33 -41 -23 -5 4 -3 0 4
-10 11 -14 10 -17 -10 -24 -13 -4 -27 -7 -32 -5 -5 1 -4 -5 4 -13 9 -12 10
-16 0 -16 -7 0 -21 -11 -31 -24 -11 -14 -28 -28 -39 -31 -11 -4 -18 -10 -15
-15 7 -12 -30 -31 -41 -22 -5 4 -2 -1 5 -10 12 -16 11 -18 -7 -18 -14 0 -20
-5 -16 -14 3 -8 0 -17 -7 -22 -8 -5 -10 -3 -5 7 4 8 -1 4 -12 -8 -11 -13 -25
-23 -32 -23 -6 0 -9 -4 -5 -9 3 -6 -4 -15 -15 -21 -11 -6 -18 -15 -15 -21 4
-5 -1 -9 -9 -9 -9 0 -16 -4 -16 -10 0 -5 -7 -10 -16 -10 -8 0 -12 -4 -9 -10 3
-5 -5 -15 -19 -21 -14 -7 -23 -16 -20 -20 6 -11 -31 -30 -42 -21 -5 4 -3 0 4
-10 14 -17 1 -34 -18 -23 -6 3 -10 -1 -10 -9 0 -9 -7 -16 -16 -16 -8 0 -13 -4
-10 -9 3 -5 -1 -12 -10 -15 -8 -3 -12 -10 -9 -16 3 -5 -3 -10 -14 -10 -13 0
-19 -5 -15 -14 3 -8 0 -17 -7 -22 -8 -5 -10 -3 -5 7 4 8 -1 4 -12 -9 -11 -12
-25 -22 -31 -22 -6 0 -10 -4 -9 -8 4 -10 -59 -72 -73 -72 -6 0 -8 -4 -5 -8 6
-10 -29 -42 -45 -42 -5 0 -8 -4 -5 -9 3 -5 -1 -12 -10 -15 -8 -3 -13 -10 -9
-16 3 -5 -6 -12 -20 -16 -14 -3 -24 -8 -21 -11 6 -6 -31 -43 -44 -43 -6 0 -9
-6 -8 -12 2 -7 -5 -12 -14 -12 -10 1 -14 -4 -11 -12 3 -9 -1 -14 -12 -14 -9 0
-14 -4 -11 -9 3 -5 -1 -12 -10 -15 -8 -3 -12 -11 -9 -16 4 -6 3 -9 -2 -8 -4 2
-29 -18 -55 -44 -26 -27 -52 -48 -59 -48 -7 0 -9 -3 -6 -7 4 -3 -2 -13 -13
-20 -11 -8 -17 -19 -14 -25 5 -7 1 -9 -9 -5 -11 4 -17 1 -17 -8 0 -8 -5 -15
-10 -15 -6 0 -9 -20 -7 -48 4 -49 29 -92 54 -92 7 0 13 -5 13 -11 0 -14 55
-69 69 -69 6 0 11 -7 11 -15 0 -8 5 -15 10 -15 6 0 10 -8 10 -17 0 -12 3 -14
8 -6 5 8 12 2 21 -18 7 -17 15 -28 18 -26 6 7 72 -57 67 -65 -3 -4 1 -10 7
-14 8 -4 9 -3 5 4 -10 17 3 15 20 -2 11 -11 11 -16 1 -19 -6 -3 -2 -6 11 -6
12 -1 21 -6 20 -13 -2 -7 8 -13 24 -13 15 -1 24 3 21 8 -7 11 33 48 43 39 4
-4 4 -1 0 5 -4 8 5 20 26 33 18 11 29 20 24 20 -5 0 28 36 73 80 51 50 87 78
94 73 7 -4 6 2 -3 13 -8 10 -11 16 -6 12 4 -3 38 25 76 63 38 38 74 69 81 69
7 0 9 3 6 6 -8 9 103 120 116 116 4 -1 6 1 3 6 -3 5 14 26 36 48 23 21 36 30
28 19 -14 -18 -14 -19 2 -6 10 7 18 20 18 28 0 7 7 16 15 19 8 4 12 11 8 17
-4 7 0 8 13 3 10 -4 15 -4 12 0 -9 9 253 274 271 274 8 0 12 3 8 6 -8 8 84
105 94 99 4 -3 10 -1 14 5 3 5 0 10 -7 11 -7 0 1 7 17 14 17 8 26 14 22 15 -4
0 -2 6 5 14 7 8 16 12 21 9 4 -2 7 3 7 11 0 9 7 16 17 16 9 0 14 3 10 6 -7 8
76 93 85 88 5 -3 8 2 8 11 0 9 5 13 10 10 5 -3 10 -1 10 6 0 15 47 59 54 51 6
-5 10 13 7 30 0 4 7 4 17 1 9 -3 14 -3 10 2 -4 4 7 23 26 41 19 18 31 36 27
41 -3 4 3 1 13 -7 13 -10 17 -10 12 -2 -4 7 -1 19 8 27 18 18 30 20 20 3 -5
-8 -2 -8 10 1 14 12 17 12 14 1 -2 -7 8 -19 22 -27 14 -7 24 -17 23 -22 -2 -6
6 -8 17 -6 12 2 19 1 16 -3 -2 -4 2 -13 10 -20 11 -10 14 -10 15 0 0 7 4 5 8
-5 4 -10 10 -18 14 -18 4 1 16 -8 27 -19 12 -12 25 -18 30 -15 6 4 10 2 10 -3
0 -14 69 -53 81 -47 5 4 9 -1 9 -9 0 -9 9 -16 20 -16 11 0 20 -4 20 -10 0 -5
7 -10 15 -10 8 0 15 -5 15 -10 0 -6 3 -9 7 -9 21 3 33 -2 27 -13 -5 -7 -3 -8
5 -4 7 5 21 0 33 -11 14 -12 19 -13 13 -3 -6 11 -3 10 12 -3 11 -9 23 -14 26
-10 4 3 7 1 7 -6 0 -7 4 -9 10 -6 6 3 10 1 10 -5 0 -6 5 -8 10 -5 5 3 10 1 10
-5 0 -6 4 -8 10 -5 6 3 10 0 10 -7 0 -11 2 -10 9 0 6 10 10 8 14 -9 5 -18 9
-21 18 -12 10 10 15 8 26 -5 9 -11 12 -11 7 -2 -5 10 0 9 14 -4 12 -10 32 -20
44 -21 13 -1 29 -3 36 -4 7 0 11 -5 8 -9 -4 -7 3 -9 59 -13 14 -1 22 -6 18
-12 -4 -6 0 -8 10 -4 10 3 17 3 17 -2 0 -4 10 -7 23 -6 12 1 25 -2 28 -7 3 -5
21 -10 40 -12 55 -6 89 -17 89 -30 0 -6 5 -4 10 4 8 12 10 12 10 1 0 -11 3
-11 15 -1 13 11 19 8 17 -11 -1 -3 5 -6 13 -6 8 0 12 3 10 7 -2 4 2 7 10 7 8
0 11 -5 8 -10 -4 -6 0 -8 10 -4 10 3 17 2 17 -4 0 -6 7 -6 20 1 14 8 20 8 20
0 0 -6 8 -10 18 -8 9 1 23 -1 31 -6 8 -5 12 -5 8 0 -3 5 5 9 18 9 13 0 21 -3
19 -6 -2 -4 3 -9 11 -13 8 -3 15 0 15 6 0 6 6 5 17 -3 14 -12 16 -12 8 0 -6
10 -4 12 6 6 7 -5 37 -10 66 -10 29 -1 56 -5 59 -8 4 -3 15 -2 25 3 12 7 20 7
24 0 5 -8 11 -8 19 -1 7 6 15 8 18 6 3 -3 8 3 11 14 3 11 -1 25 -9 32 -8 6
-11 16 -8 21 3 5 7 22 9 36 2 15 5 37 8 50 4 14 2 20 -5 16 -6 -4 -8 1 -4 14
4 12 2 31 -4 43 -9 16 -9 24 0 33 8 8 10 7 5 -5 -4 -10 -2 -19 3 -23 13 -8 8
30 -7 47 -7 9 -8 18 -3 21 5 3 12 15 15 26 3 11 2 18 -3 15 -17 -11 -20 28 -3
42 14 12 15 14 2 10 -9 -3 -16 1 -16 9 0 7 4 11 9 8 13 -8 9 11 -4 25 -11 10
-9 11 7 5 11 -4 17 -3 12 1 -6 7 -98 16 -160 16 -9 0 -15 5 -11 10 3 6 -4 5
-15 -3 -14 -8 -24 -10 -29 -3 -4 6 -27 10 -52 10 -25 0 -48 5 -52 10 -5 6 -8
4 -8 -5 0 -13 -1 -13 -10 0 -10 17 -41 20 -52 5 -5 -6 -8 -5 -8 3 0 7 -14 12
-35 12 -19 0 -35 5 -35 11 0 5 -5 7 -10 4 -6 -4 -17 -1 -25 5 -12 10 -15 10
-15 -1 -1 -10 -5 -9 -14 4 -11 14 -15 15 -19 5 -4 -11 -6 -11 -6 0 -1 7 -5 10
-11 7 -5 -3 -10 -1 -10 4 0 6 -5 11 -11 11 -5 0 -7 -4 -4 -10 3 -6 -1 -7 -9
-4 -9 3 -13 10 -10 15 3 5 -2 6 -10 3 -9 -3 -16 -2 -16 4 0 6 -9 8 -20 5 -11
-3 -20 -1 -20 5 0 6 -9 9 -19 7 -15 -3 -18 0 -14 13 6 14 4 15 -9 4 -13 -10
-19 -10 -31 2 -8 8 -17 12 -21 9 -3 -4 -6 -1 -6 5 0 6 -9 9 -20 7 -11 -2 -23
1 -26 7 -5 7 -2 8 6 3 8 -5 11 -4 7 2 -4 6 -18 9 -31 8 -14 -2 -30 3 -37 11
-6 8 -18 14 -25 14 -8 0 -14 5 -14 11 0 5 -4 7 -10 4 -5 -3 -10 -1 -10 5 0 6
-10 15 -23 20 -12 5 -17 9 -11 9 6 1 39 29 75 62 35 34 58 58 50 54 -9 -6 -12
-4 -7 3 4 7 14 12 22 12 8 0 14 5 14 11 0 5 4 7 10 4 6 -4 7 1 3 11 -4 11 -3
15 5 10 6 -4 17 5 26 21 8 15 17 27 20 25 10 -4 36 25 29 32 -4 3 1 6 10 6 8
0 19 10 22 21 5 16 9 18 15 9 6 -9 10 -7 14 8 4 11 13 23 21 26 8 3 15 13 15
21 0 9 4 14 10 10 5 -3 17 6 26 20 9 13 20 22 25 19 5 -3 6 2 3 11 -4 9 -2 15
4 13 5 -2 21 9 35 24 14 15 28 24 32 20 4 -4 6 -2 5 3 -1 6 -2 17 -1 25 1 13
2 13 11 0 8 -12 10 -10 10 8 0 13 4 20 10 17 5 -3 10 2 10 12 0 14 2 15 9 5 6
-10 10 -8 14 8 3 12 10 19 16 15 7 -4 8 0 4 11 -4 11 -3 15 5 10 6 -4 17 5 26
21 9 16 16 22 16 13 1 -9 5 -5 11 8 5 15 13 21 21 16 7 -4 10 -4 6 0 -8 9 54
75 65 69 4 -2 7 -1 6 4 -1 4 -1 15 0 23 1 13 2 13 11 0 7 -11 10 -12 10 -2 0
16 29 47 44 47 6 0 12 6 12 13 4 36 4 37 14 22 8 -13 10 -12 10 3 0 10 10 21
23 26 12 5 21 12 21 17 -1 5 5 18 12 29 10 13 14 15 14 5 0 -8 12 4 27 27 16
25 32 39 40 36 9 -4 11 0 6 13 -4 12 -3 15 5 10 7 -4 15 0 18 9 4 8 16 21 28
27 11 6 18 7 14 3 -8 -8 62 -81 74 -78 4 2 10 -6 13 -17 4 -11 13 -20 21 -20
8 0 14 -6 14 -14 0 -8 9 -17 20 -21 11 -3 19 -9 19 -13 -3 -20 2 -32 11 -27 6
3 10 1 10 -5 0 -6 5 -8 10 -5 5 3 10 2 10 -4 0 -12 58 -71 71 -71 5 0 9 -7 9
-15 0 -8 4 -15 10 -15 5 0 17 -12 25 -27 10 -18 14 -21 11 -8 -5 16 -2 15 12
-5 9 -13 27 -33 40 -44 12 -11 22 -26 22 -33 0 -12 13 -17 33 -14 4 0 7 -7 7
-16 0 -9 3 -13 7 -10 8 9 39 -34 35 -48 -2 -5 -1 -7 3 -4 3 4 27 -15 52 -42
26 -26 50 -46 55 -43 4 3 8 -3 8 -12 0 -10 3 -14 7 -11 7 8 39 -34 35 -46 -1
-5 2 -6 8 -2 5 3 10 -2 11 -12 0 -10 3 -13 6 -6 3 10 8 10 19 -1 8 -8 14 -17
14 -20 0 -11 40 -46 52 -46 6 0 8 -3 5 -7 -8 -7 31 -53 45 -53 5 0 16 -6 24
-14 11 -11 11 -16 1 -19 -7 -3 -4 -6 6 -6 11 -1 15 -6 11 -13 -4 -6 -3 -8 3
-5 6 4 25 -11 44 -33 18 -21 37 -36 41 -34 4 3 8 -3 8 -12 0 -10 3 -14 7 -11
3 4 11 -3 18 -16 6 -12 18 -21 27 -21 10 1 14 -5 11 -17 -3 -11 -12 -19 -20
-19 -8 0 -11 -5 -7 -13 4 -6 4 -9 -1 -5 -4 4 -15 2 -23 -5 -13 -10 -15 -9 -8
3 4 9 2 8 -7 -2 -8 -10 -17 -15 -20 -11 -4 3 -7 2 -7 -4 0 -6 -8 -10 -17 -9
-10 0 -17 -5 -15 -12 1 -8 -2 -11 -8 -7 -6 4 -17 1 -25 -5 -12 -10 -15 -10
-15 -1 0 8 -6 7 -16 -3 -8 -9 -20 -14 -25 -11 -5 4 -9 1 -9 -4 0 -6 -9 -11
-21 -11 -12 0 -17 -4 -13 -11 5 -8 1 -8 -14 0 -17 9 -23 8 -31 -6 -5 -10 -13
-15 -17 -11 -4 4 -13 0 -21 -10 -12 -16 -13 -15 -6 3 6 19 5 19 -13 4 -10 -9
-25 -14 -33 -11 -9 3 -11 0 -6 -8 6 -9 3 -9 -15 0 -20 11 -22 10 -17 -3 5 -14
1 -15 -25 -10 -25 5 -29 3 -23 -8 7 -12 6 -12 -7 -1 -11 9 -18 10 -23 2 -3 -5
-19 -10 -35 -10 -16 0 -32 -5 -35 -10 -5 -8 -12 -7 -23 2 -11 9 -14 10 -8 1 5
-9 -1 -12 -23 -9 -17 2 -31 0 -31 -3 0 -4 -16 -6 -35 -6 -19 1 -35 -3 -35 -9
0 -6 -5 -4 -10 4 -9 13 -11 13 -20 0 -6 -9 -13 -11 -17 -5 -10 12 -55 16 -47
4 3 -5 11 -6 17 -3 7 4 9 3 4 -1 -4 -5 -18 -9 -31 -10 -17 0 -22 4 -18 15 4
12 2 12 -8 3 -7 -6 -19 -9 -28 -6 -11 5 -13 3 -7 -8 7 -11 6 -12 -6 -3 -11 9
-17 8 -29 -4 -13 -14 -12 -15 2 -9 12 4 15 2 11 -8 -3 -8 -10 -12 -17 -8 -7 4
-7 1 1 -9 7 -8 10 -17 7 -21 -9 -9 -12 -57 -3 -51 12 7 11 -13 -1 -37 -8 -13
-7 -19 0 -19 6 0 8 -5 5 -11 -11 -16 -13 -59 -4 -53 12 7 11 -13 -1 -37 -8
-13 -7 -19 0 -19 6 0 8 -5 5 -11 -11 -16 -13 -59 -4 -53 12 7 11 -13 -1 -37
-8 -14 -7 -19 1 -19 9 0 9 -3 0 -14 -9 -11 -7 -15 11 -21 34 -10 109 -12 115
-2 2 4 11 3 19 -4 11 -9 14 -9 14 0 0 8 5 9 19 1 13 -7 22 -7 26 0 3 5 11 10
16 10 6 0 7 -6 3 -12 -6 -9 -3 -9 9 0 9 8 21 11 27 7 5 -3 10 -1 10 6 0 8 5 7
17 -2 12 -10 15 -11 9 -1 -6 9 -1 11 18 8 15 -3 26 0 26 6 0 7 4 7 13 0 8 -7
18 -7 27 -2 8 5 23 7 33 4 9 -3 17 -2 17 3 0 5 8 10 18 11 34 4 52 8 58 15 4
4 13 2 21 -4 10 -9 13 -8 13 0 0 7 5 9 10 6 6 -3 10 0 10 7 0 10 2 10 9 -1 6
-9 11 -10 15 -2 4 6 18 11 31 11 13 0 27 5 31 11 4 8 9 7 15 -2 7 -11 9 -11 9
-1 0 7 5 10 10 7 6 -3 10 -1 10 5 0 6 6 10 13 9 27 -3 48 1 43 10 -4 5 3 7 14
4 13 -3 20 0 20 8 0 11 2 11 10 -1 8 -12 10 -12 10 5 0 17 2 17 10 5 8 -12 10
-12 10 -1 0 11 3 11 15 1 12 -10 13 -8 10 10 -3 18 -2 20 10 10 12 -10 15 -10
15 0 0 8 3 10 7 7 3 -4 13 -1 21 6 13 10 14 9 7 -3 -5 -9 1 -7 14 5 13 11 25
19 27 18 10 -7 25 -2 20 6 -3 4 6 7 20 5 18 -2 24 2 20 11 -3 10 0 12 11 8 12
-5 14 -3 8 8 -8 12 -6 12 8 0 13 -10 17 -10 17 -1 0 7 7 10 15 6 8 -3 14 -2
12 2 -1 4 0 7 3 8 3 0 16 7 30 14 14 8 28 13 33 12 4 -1 7 4 7 12 0 10 7 12
22 8 14 -3 19 -2 14 6 -4 7 -2 13 3 13 6 1 16 3 21 4 6 1 15 3 20 4 6 0 10 9
10 19 0 14 2 15 10 2 9 -14 14 -7 11 13 -1 5 3 6 8 3 5 -4 16 1 24 9 12 11 17
12 20 2 4 -8 6 -7 6 3 1 8 10 21 22 28 17 11 20 11 14 0 -3 -7 1 -4 9 6 9 11
16 17 16 13 0 -5 6 -2 14 5 8 7 12 15 10 17 -2 2 4 10 14 17 12 9 21 9 30 1
10 -8 12 -7 10 4 -2 8 3 13 10 11 8 -1 11 2 7 8 -3 5 6 15 22 21 15 5 31 16
35 22 6 9 8 9 8 -1 0 -7 4 -11 9 -7 5 3 12 -4 16 -15 3 -11 11 -20 16 -20 6 0
17 -7 25 -15 9 -8 13 -15 9 -15 -3 0 0 -6 7 -14 7 -8 16 -12 21 -9 4 2 7 -1 7
-7 0 -15 26 -41 34 -33 3 4 6 -2 6 -13 0 -16 2 -17 10 -4 8 12 10 10 10 -8 0
-13 4 -20 10 -17 6 3 10 1 10 -5 0 -15 26 -41 34 -33 3 4 6 -2 6 -13 0 -16 2
-17 10 -4 8 12 10 11 10 -6 0 -12 8 -28 17 -35 14 -12 16 -12 8 0 -5 10 -4 12
3 7 7 -4 12 -12 12 -17 0 -18 48 -59 53 -46 3 7 6 4 6 -6 1 -21 26 -49 35 -40
3 4 6 -2 6 -13 0 -16 2 -17 10 -4 8 13 10 12 10 -3 0 -18 29 -56 31 -40 0 4 4
-2 10 -15 5 -13 13 -21 18 -17 5 3 12 -4 16 -15 3 -11 13 -20 22 -20 8 0 17
-9 20 -20 3 -11 9 -17 14 -14 5 3 9 0 9 -6 0 -14 25 -40 39 -40 5 0 13 -9 16
-20 3 -11 13 -20 20 -20 8 0 20 -12 27 -27 8 -16 21 -27 30 -27 10 1 14 -4 11
-12 -3 -8 1 -14 10 -14 9 0 22 -12 30 -27 7 -16 19 -27 25 -26 7 2 12 -3 12
-10 0 -6 14 -20 30 -29 17 -9 30 -25 30 -34 0 -10 5 -14 15 -11 8 4 17 1 21
-5 4 -7 3 -8 -4 -4 -7 4 -12 2 -12 -3 0 -6 4 -11 8 -11 5 0 17 -7 28 -16 10
-8 12 -12 4 -8 -8 4 -12 4 -8 -1 4 -4 18 -13 30 -19 12 -6 28 -21 34 -34 6
-12 14 -19 17 -15 4 3 7 -2 7 -11 0 -12 5 -16 16 -12 8 3 12 2 9 -4 -3 -5 4
-14 15 -20 12 -6 25 -22 30 -36 5 -13 16 -24 24 -24 7 0 20 -8 27 -17 13 -17
13 -17 -6 -3 -19 14 -19 14 -6 -3 7 -9 20 -17 28 -17 8 0 11 -4 8 -10 -3 -5 0
-10 7 -10 16 0 68 -57 60 -65 -3 -3 0 -5 7 -5 7 0 9 -4 6 -10 -3 -5 0 -7 8 -4
8 3 20 -3 28 -12 12 -15 12 -17 0 -9 -10 5 -12 4 -7 -3 4 -7 12 -12 17 -12 5
0 22 -12 37 -27 15 -15 18 -20 7 -12 -18 13 -19 13 -6 -3 7 -10 19 -18 26 -18
20 0 48 -37 39 -52 -6 -10 -4 -10 9 1 16 12 17 12 11 -5 -4 -10 -4 -16 0 -12
8 7 46 -27 46 -41 0 -6 5 -13 12 -17 7 -5 9 -2 4 7 -4 8 2 3 13 -10 13 -15 27
-21 37 -17 12 5 14 3 8 -7 -5 -7 -2 -5 7 5 9 9 20 14 25 10 5 -4 6 -3 2 2 -11
13 12 37 26 29 6 -3 8 -3 4 2 -9 9 16 35 34 35 11 0 11 2 0 9 -11 7 -10 10 3
15 9 3 21 4 26 1 5 -4 6 1 3 9 -4 10 6 22 28 36 18 11 27 20 20 20 -7 0 -10 5
-7 11 4 6 9 8 12 5 3 -2 19 10 36 27 17 18 35 31 39 30 4 -2 8 3 8 11 0 8 7
17 16 20 8 3 12 11 9 16 -4 6 -1 9 7 8 7 -2 12 3 11 10 -2 6 6 12 16 12 11 0
23 4 26 10 3 6 -1 7 -12 4 -10 -3 -5 2 10 11 16 9 25 21 21 27 -5 7 -2 9 9 5
12 -4 14 -2 10 11 -10 25 -29 42 -38 34 -5 -4 -5 1 -2 10 4 11 2 17 -6 15 -7
-1 -11 4 -9 12 2 8 -3 11 -12 8 -9 -4 -15 -1 -13 6 1 7 -4 11 -10 10 -7 -2
-13 6 -13 18 0 16 -4 19 -17 15 -10 -4 -15 -4 -11 -1 9 10 -24 45 -35 38 -6
-3 -8 -2 -5 3 5 11 -38 54 -46 46 -3 -3 -6 2 -6 11 0 9 -5 17 -11 17 -5 0 -7
5 -3 12 5 8 2 9 -9 5 -13 -5 -17 -1 -17 14 0 11 -4 18 -9 14 -5 -3 -12 4 -16
15 -3 11 -9 19 -13 19 -20 -3 -32 2 -27 11 3 6 1 10 -5 10 -6 0 -8 5 -4 12 4
7 3 8 -5 4 -6 -4 -14 0 -17 8 -3 9 -10 13 -15 10 -5 -3 -9 -2 -8 3 1 4 -1 16
-6 26 -6 15 -10 15 -23 5 -11 -9 -13 -9 -9 -1 4 6 3 14 -3 18 -6 4 -7 11 -4
17 4 6 2 8 -4 4 -6 -3 -13 3 -17 14 -3 11 -9 19 -13 19 -20 -3 -32 2 -27 11 3
6 1 10 -5 10 -6 0 -8 4 -5 10 4 6 -1 7 -12 3 -16 -6 -17 -5 -4 11 13 16 13 17
-5 14 -11 -2 -18 2 -17 9 2 7 0 12 -5 12 -19 -3 -33 2 -27 11 3 6 1 10 -5 10
-6 0 -8 5 -4 12 4 7 3 8 -4 4 -7 -4 -17 3 -23 18 -7 14 -16 23 -20 20 -5 -3
-13 6 -19 20 -6 17 -17 26 -30 26 -12 0 -19 4 -16 8 3 5 -4 14 -14 22 -10 8
-16 18 -13 23 3 6 1 7 -4 4 -13 -8 -36 17 -26 27 4 4 -1 4 -10 0 -10 -3 -17
-3 -16 2 3 18 -1 34 -8 33 -20 -3 -34 2 -28 11 3 6 1 10 -5 10 -6 0 -8 5 -5
10 4 6 1 9 -7 8 -7 -2 -12 3 -11 9 2 7 -3 12 -10 10 -6 -1 -11 4 -10 10 2 7 0
12 -5 10 -4 -1 -21 13 -38 30 -17 18 -34 29 -38 25 -4 -4 -7 -2 -5 3 1 6 -1
18 -6 28 -6 14 -10 15 -23 5 -13 -11 -15 -10 -10 10 5 17 2 22 -14 22 -10 0
-16 5 -13 10 3 6 1 10 -5 10 -6 0 -8 5 -4 12 4 6 3 8 -3 5 -13 -8 -36 17 -26
27 4 4 0 4 -10 0 -14 -5 -16 -2 -10 12 5 14 3 16 -12 10 -11 -4 -16 -4 -13 0
4 4 -8 22 -27 41 -19 19 -35 40 -35 45 0 6 -8 4 -17 -3 -9 -8 -14 -9 -10 -3 8
13 -27 57 -37 47 -4 -4 -4 1 0 12 6 15 4 17 -10 12 -14 -5 -17 -3 -12 8 3 8 0
14 -7 12 -7 -1 -11 3 -10 10 2 8 -4 10 -14 6 -10 -4 -14 -2 -9 5 3 6 -3 13
-14 17 -11 3 -20 11 -20 16 0 6 5 7 10 4 6 -3 10 -4 10 -1 0 3 -10 10 -21 17
-17 9 -20 8 -14 -2 5 -8 4 -10 -4 -5 -6 4 -9 11 -6 16 5 7 -22 35 -34 35 -3 0
-5 5 -3 11 1 6 -9 16 -24 22 -14 7 -22 17 -19 22 4 6 3 10 -2 9 -20 -3 -34 2
-28 11 3 5 2 10 -3 10 -5 0 -9 10 -8 22 1 13 7 22 14 21 7 -2 9 4 5 14 -4 11
-3 14 5 9 7 -4 12 -1 12 8 0 8 7 19 16 24 9 5 16 13 15 18 0 5 7 8 15 8 11 -2
12 1 4 11 -9 10 -6 16 11 25 16 9 18 14 9 20 -9 6 -7 10 8 15 12 3 21 12 19
18 -1 7 3 11 10 10 7 -2 10 4 7 12 -4 8 -1 15 6 15 6 0 8 5 5 10 -3 6 -1 10 5
10 6 0 9 4 6 9 -3 5 1 11 9 15 8 3 15 14 15 25 0 11 7 26 15 34 8 8 11 18 7
22 -4 5 1 5 10 2 12 -4 16 -1 13 14 -2 10 0 19 4 19 5 0 12 11 15 25 4 14 11
25 16 25 5 0 7 9 5 21 -3 14 0 19 8 16 8 -3 14 4 15 19 4 50 5 54 17 44 8 -6
11 -1 12 18 1 48 3 53 14 47 6 -4 10 -1 8 6 -3 24 1 40 9 36 6 -5 10 12 15 65
1 12 5 14 13 7 8 -7 10 -2 6 17 -4 21 -2 25 9 19 11 -6 11 -5 3 4 -12 14 3 61
20 61 5 0 3 7 -4 15 -10 12 -9 16 3 21 9 3 13 12 11 19 -3 7 -1 16 5 20 8 4 8
12 0 27 -10 18 -9 20 4 15 12 -4 14 -2 10 10 -5 12 -3 14 8 8 12 -8 12 -6 0 8
-11 14 -11 17 0 17 11 0 11 2 -1 10 -8 5 -10 10 -4 10 7 0 15 7 18 16 4 10 2
13 -7 7 -6 -4 -4 6 7 21 10 16 12 25 5 21 -9 -6 -11 -3 -6 9 4 10 7 20 7 22 0
3 5 2 12 -2 7 -5 8 -3 3 7 -12 19 -14 49 -3 49 5 0 4 9 -2 19 -7 14 -7 22 2
27 6 4 8 3 4 -4 -3 -6 -3 -13 2 -16 4 -2 7 19 7 47 -1 29 4 58 9 66 8 11 8 13
0 8 -8 -4 -11 2 -10 18 0 15 7 25 16 25 9 0 11 3 4 8 -6 4 -13 15 -17 24 -4
12 -2 15 9 11 15 -6 17 2 5 32 -5 12 -4 26 3 34 9 12 8 13 -4 6 -13 -7 -13 -6
-2 7 9 11 10 18 2 23 -6 3 -7 12 -3 18 14 22 9 43 -9 43 -10 0 -18 -3 -18 -6
0 -3 -87 -5 -194 -5 -107 0 -193 2 -191 5 2 3 -5 6 -15 6 -10 0 -17 -3 -14 -7
2 -4 -3 -12 -11 -19 -11 -9 -12 -16 -5 -25 8 -9 7 -15 -2 -18 -8 -4 -9 -8 -3
-14 14 -11 15 -43 2 -43 -8 0 -7 -4 1 -12 9 -9 7 -14 -6 -25 -16 -12 -15 -12
3 -6 16 5 18 4 9 -8 -12 -16 -12 -29 -1 -46 6 -9 3 -11 -9 -6 -14 5 -15 3 -4
-17 11 -20 10 -22 -3 -17 -11 4 -14 2 -10 -8 3 -8 10 -12 17 -9 6 3 2 -2 -8
-10 -15 -12 -16 -16 -5 -16 9 0 10 -3 3 -8 -6 -4 -11 -19 -11 -34 -2 -61 -3
-69 -12 -64 -5 4 -8 -2 -6 -11 1 -10 -2 -26 -7 -37 -8 -14 -7 -17 4 -11 7 5
10 5 6 0 -4 -4 -2 -15 5 -24 10 -14 10 -14 -5 -3 -11 9 -18 10 -23 2 -3 -5 0
-10 7 -10 9 0 9 -3 -2 -10 -8 -5 -11 -10 -6 -10 4 0 1 -12 -9 -26 -9 -15 -12
-23 -6 -20 6 4 11 2 11 -3 0 -6 -5 -11 -10 -11 -6 0 -8 -11 -6 -24 3 -17 1
-23 -8 -20 -7 3 -13 -2 -13 -10 0 -8 5 -12 11 -9 6 4 2 -3 -8 -15 -11 -12 -15
-22 -10 -22 5 0 2 -5 -6 -10 -13 -8 -13 -10 0 -10 9 0 6 -6 -9 -16 -15 -11
-19 -20 -13 -26 13 -13 4 -40 -11 -31 -6 4 -8 -2 -5 -15 4 -12 3 -20 -1 -18
-3 2 -11 -7 -18 -20 -8 -18 -8 -23 0 -18 7 3 3 -2 -7 -10 -11 -9 -16 -16 -12
-16 5 0 3 -7 -4 -15 -6 -8 -9 -19 -5 -25 4 -6 1 -9 -7 -8 -7 2 -12 -4 -10 -14
2 -12 -2 -16 -13 -12 -8 3 -15 11 -15 18 0 6 -5 4 -10 -4 -8 -13 -10 -12 -10
3 0 9 -4 17 -10 17 -5 0 -10 7 -10 16 0 8 -4 13 -9 10 -5 -3 -16 6 -25 19 -9
14 -21 23 -26 20 -11 -7 -32 29 -23 39 3 3 -1 6 -10 6 -8 0 -19 9 -22 20 -3
11 -12 20 -20 20 -7 0 -16 7 -19 16 -3 8 -10 13 -14 10 -5 -3 -15 6 -22 19 -7
13 -17 22 -22 19 -5 -3 -7 -2 -6 3 2 5 -9 22 -24 38 -15 16 -24 33 -21 38 3 6
1 7 -5 3 -13 -8 -52 23 -52 42 0 7 -4 10 -10 7 -5 -3 -10 1 -10 9 0 8 -5 18
-12 22 -7 5 -9 2 -4 -7 4 -8 1 -5 -8 5 -8 10 -13 23 -9 29 3 6 1 7 -6 3 -12
-8 -41 16 -41 33 0 6 -6 11 -14 11 -20 0 -87 80 -79 94 4 6 -2 4 -12 -4 -17
-14 -18 -13 -13 8 4 12 3 20 -1 17 -14 -8 -53 27 -47 42 3 8 1 11 -4 8 -6 -3
-10 -1 -10 4 0 6 -6 10 -12 8 -7 -1 -12 4 -11 11 2 6 -1 12 -5 12 -12 0 -72
55 -72 67 0 5 -11 16 -25 23 -13 7 -27 22 -31 33 -5 16 -8 17 -16 6 -7 -10 -8
-8 -5 9 3 12 2 20 -3 17 -4 -3 -19 4 -31 16 -13 11 -17 18 -9 14 8 -4 4 3 -10
14 -14 11 -29 21 -33 21 -5 0 -5 4 -2 10 3 6 1 10 -6 10 -13 0 -49 38 -49 52
0 4 -6 8 -13 8 -8 0 -19 12 -26 26 -10 23 -10 26 4 20 10 -3 13 -2 10 5 -4 5
4 20 17 32 13 12 34 36 47 52 13 17 21 22 18 12 -4 -11 -3 -16 3 -12 6 3 10
11 10 16 0 12 58 69 70 69 6 0 10 4 10 10 0 16 117 130 125 122 3 -4 5 0 3 8
-2 8 3 14 10 12 8 -1 11 2 7 8 -4 7 2 14 14 17 11 3 18 9 15 14 -3 5 -1 9 5 9
5 0 12 9 16 20 3 11 10 19 14 17 4 -1 30 22 58 51 27 28 55 52 62 52 7 0 9 4
6 10 -3 6 -2 10 4 10 5 0 12 9 16 20 3 11 9 19 13 17 4 -1 48 40 98 91 51 50
97 92 103 92 6 0 10 3 10 8 -1 4 -1 14 0 22 1 13 2 13 11 0 8 -13 10 -13 10 2
0 10 9 22 20 28 11 6 17 16 14 22 -5 8 -1 9 10 5 14 -5 17 -3 12 8 -3 8 -1 16
4 16 6 1 16 2 23 3 6 0 12 6 12 11 0 18 16 36 26 29 5 -3 8 0 7 8 -2 7 5 12
14 12 10 -1 15 3 12 8 -7 11 29 48 48 48 10 0 10 2 0 9 -11 7 -10 10 3 15 9 3
22 3 27 -1 7 -3 8 -1 4 5 -7 12 112 139 126 134 4 -1 8 4 8 12 0 8 7 17 16 20
9 3 12 11 8 18 -4 7 -4 10 1 6 9 -8 182 162 177 174 -1 5 5 8 14 8 9 0 12 5 8
13 -5 7 0 6 11 -3 10 -8 16 -10 12 -3 -4 7 15 33 45 65 29 29 51 57 50 63 -2
5 0 7 4 3 4 -4 34 20 68 55 34 34 72 71 86 81 15 11 18 16 7 12 -11 -3 -16 -2
-12 4 3 6 10 10 15 10 12 0 115 103 112 112 -1 5 3 7 10 5 7 -1 17 8 23 21 5
12 13 22 17 22 4 0 39 32 77 70 37 39 75 70 82 70 11 0 11 2 -1 10 -10 6 -11
10 -2 10 7 0 12 13 12 30 0 17 4 30 10 30 5 0 9 3 9 8 -4 21 2 32 14 26 8 -5
8 -2 -2 9 -12 15 -11 17 5 18 18 0 18 1 -1 9 -18 7 -18 9 -3 15 10 4 15 15 13
27 -3 14 0 18 10 14 11 -4 12 0 4 21 -7 20 -7 24 4 20 8 -3 14 1 14 9 0 7 -5
10 -11 7 -6 -4 -5 0 1 9 7 8 10 18 6 21 -3 4 -1 7 5 7 6 0 9 7 6 15 -4 8 -1
15 6 15 10 0 10 3 1 14 -9 11 -8 18 4 30 14 14 19 27 29 73 3 18 16 28 16 13
0 -7 3 -11 6 -8 3 4 1 16 -6 27 -6 13 -7 21 -1 21 5 0 8 9 6 20 -2 11 0 18 6
15 8 -6 14 16 10 39 -1 4 6 15 16 23 10 8 12 11 4 7 -9 -4 -12 -2 -9 7 3 8 12
13 19 11 11 -3 11 -1 2 9 -13 13 -6 42 9 33 6 -4 5 3 -1 15 -10 17 -9 22 4 28
13 5 14 7 3 14 -10 7 -11 9 0 9 8 0 10 5 6 12 -5 8 -2 9 11 4 15 -5 16 -4 6 8
-9 11 -9 16 0 21 8 6 7 10 -2 16 -10 6 -11 9 -1 9 6 0 12 7 12 15 0 8 6 15 13
15 8 0 7 4 -3 10 -10 6 -11 10 -2 10 6 0 12 11 12 24 0 34 10 57 22 50 6 -4 6
2 -1 14 -8 15 -7 23 4 32 8 7 15 23 15 36 0 13 5 24 10 24 6 0 10 7 10 16 0 9
-5 13 -12 9 -7 -4 -5 0 4 8 10 8 15 17 11 20 -3 4 0 7 8 7 11 0 11 2 -1 10
-11 7 -11 10 -2 10 7 0 11 4 7 9 -3 5 2 16 10 24 17 17 20 31 5 22 -6 -3 -7 1
-4 9 3 9 9 16 13 16 4 0 7 10 8 23 0 12 -1 16 -4 9 -4 -10 -8 -10 -21 0 -13
11 -14 11 -7 -1z m-5727 -455 c23 -8 42 -12 42 -8 0 4 7 -2 15 -12 8 -11 15
-14 15 -8 0 19 20 14 21 -5 0 -11 3 -13 6 -6 3 9 10 10 22 3 10 -5 21 -6 25
-3 3 3 6 1 6 -6 0 -7 5 -9 10 -6 6 3 10 1 10 -4 0 -6 5 -11 11 -11 5 0 7 6 3
13 -6 9 -5 9 8 0 8 -7 18 -10 21 -6 4 3 9 -1 12 -9 4 -10 14 -14 26 -11 11 3
19 0 19 -7 0 -9 4 -9 17 1 9 8 14 9 11 4 -4 -6 5 -15 18 -22 18 -8 22 -8 17 0
-4 8 -1 7 9 -1 9 -7 29 -14 46 -15 17 -1 29 -4 27 -6 -6 -6 22 -31 35 -31 6 0
8 -4 5 -10 -3 -5 2 -10 11 -10 10 0 15 -3 11 -6 -7 -7 17 -34 31 -34 5 0 16
-8 23 -17 13 -17 13 -17 -6 -3 -19 14 -19 14 -6 -2 7 -10 20 -18 29 -18 8 0
13 -3 9 -6 -8 -8 18 -34 33 -34 6 0 9 -3 7 -7 -3 -5 1 -13 8 -20 11 -10 15
-10 18 0 3 7 6 1 6 -12 1 -16 5 -21 16 -18 8 4 17 1 21 -5 4 -7 3 -8 -4 -4 -7
4 -12 3 -12 -2 0 -5 11 -15 25 -22 13 -7 22 -17 19 -22 -3 -4 2 -8 11 -8 9 0
13 -4 10 -10 -3 -5 1 -10 10 -10 9 0 13 -4 10 -10 -3 -5 0 -10 8 -10 8 0 19
-10 25 -22 7 -16 11 -18 12 -8 1 8 5 4 9 -9 3 -13 15 -29 26 -35 29 -17 45
-33 38 -40 -4 -3 2 -6 11 -6 12 0 16 -5 12 -16 -4 -9 -1 -14 6 -12 15 5 59
-36 75 -70 8 -15 11 -18 8 -7 -4 12 9 3 34 -24 23 -25 41 -48 41 -53 0 -5 3
-7 8 -5 11 6 99 -88 94 -101 -2 -7 3 -10 11 -6 16 6 50 -33 41 -48 -3 -5 -2
-8 3 -7 21 4 33 -2 33 -16 0 -8 5 -15 11 -15 5 0 8 -4 5 -9 -3 -5 2 -8 12 -7
10 0 17 -6 16 -16 -1 -11 4 -14 14 -10 11 4 14 1 9 -12 -4 -10 -3 -15 3 -11
14 9 63 -43 54 -57 -4 -6 -3 -8 3 -5 6 4 19 -1 29 -9 10 -9 13 -12 5 -8 -9 5
-12 3 -7 -4 4 -7 14 -12 22 -12 8 0 12 -4 9 -10 -3 -5 0 -10 8 -10 19 0 50
-36 42 -50 -3 -6 -3 -10 2 -9 20 3 34 -2 28 -11 -3 -5 1 -10 10 -10 8 0 20
-11 25 -24 5 -13 15 -28 22 -32 10 -6 10 -3 -1 12 -8 10 0 4 17 -15 18 -18 30
-37 27 -41 -3 -5 5 -6 17 -2 21 5 22 4 9 -12 -8 -9 -10 -16 -5 -15 22 4 34 -2
34 -18 0 -9 3 -14 6 -10 7 7 34 -17 34 -31 0 -6 7 -13 16 -16 8 -3 12 -11 8
-17 -4 -8 -3 -9 5 -5 13 9 45 -20 37 -33 -4 -5 4 -7 16 -3 21 5 22 4 8 -13 -8
-10 -10 -16 -4 -12 5 3 23 -5 39 -19 15 -13 24 -24 19 -24 -5 0 8 -11 28 -25
20 -14 39 -34 43 -45 3 -11 11 -20 17 -20 5 0 26 -16 45 -35 19 -19 31 -35 26
-35 -4 0 11 -13 34 -28 31 -20 40 -32 33 -40 -6 -7 -7 -10 -4 -7 4 3 13 -3 21
-13 9 -11 12 -11 7 -2 -4 8 10 -3 30 -25 20 -22 42 -39 48 -37 7 2 7 -3 -2
-13 -11 -13 -10 -15 4 -9 11 4 18 -1 24 -16 4 -12 11 -21 15 -21 4 1 6 -2 5
-5 -2 -4 7 -10 20 -15 12 -5 22 -15 22 -24 0 -8 6 -14 13 -13 6 2 11 -3 9 -11
-2 -8 3 -11 12 -8 11 4 13 1 9 -10 -4 -11 -2 -14 5 -9 7 4 12 2 12 -4 0 -6 5
-8 10 -5 6 4 9 3 8 -2 -4 -12 28 -54 35 -46 4 3 7 -1 7 -11 0 -9 4 -15 9 -12
12 8 54 -40 47 -53 -4 -7 -1 -8 8 -5 11 4 16 0 16 -10 0 -9 3 -15 8 -13 4 1 8
-3 10 -8 2 -6 12 -13 23 -17 10 -4 19 -14 19 -23 0 -8 5 -15 11 -15 5 0 7 -6
3 -12 -5 -9 -2 -9 9 1 17 13 23 6 18 -21 0 -5 5 -8 12 -8 14 0 47 -35 47 -50
0 -6 5 -9 12 -7 6 1 17 -8 23 -20 7 -13 14 -20 18 -17 3 3 10 -4 17 -15 6 -12
16 -18 22 -15 7 4 8 3 4 -4 -4 -7 -3 -12 3 -12 5 0 12 -9 16 -20 3 -11 11 -19
17 -17 6 1 17 -8 23 -21 7 -13 16 -24 21 -25 5 -1 8 -8 8 -14 -1 -7 3 -10 8
-7 10 7 48 -29 48 -46 0 -5 3 -9 8 -9 4 1 14 1 22 0 13 -1 13 -2 0 -11 -13 -9
-13 -10 0 -10 17 0 50 -34 50 -50 0 -6 6 -10 14 -10 8 0 18 -9 21 -20 4 -11
10 -18 15 -15 11 7 32 -30 22 -39 -3 -4 1 -4 11 -1 12 5 20 0 28 -19 7 -14 16
-23 20 -20 4 2 13 -5 19 -16 6 -11 15 -18 19 -16 4 3 14 -6 21 -19 7 -13 17
-22 22 -19 5 3 7 1 6 -3 -4 -13 64 -79 76 -75 6 2 8 1 4 -3 -10 -10 15 -34 27
-27 6 3 3 -3 -5 -13 -9 -11 -10 -16 -2 -11 7 4 23 -1 38 -13 15 -12 23 -21 19
-21 -12 0 67 -75 80 -75 5 0 8 -9 7 -20 -2 -11 -1 -17 3 -13 9 9 47 -30 40
-42 -3 -5 4 -7 15 -5 14 3 20 -1 20 -16 0 -10 5 -19 11 -19 5 0 7 -6 3 -12 -5
-9 -2 -9 9 1 14 11 17 11 18 0 1 -8 0 -18 -1 -24 -1 -5 1 -7 5 -4 9 10 67 -49
60 -61 -3 -5 0 -7 8 -4 18 6 60 -44 50 -60 -4 -6 0 -5 9 2 13 10 18 10 24 1 5
-8 3 -10 -7 -4 -8 4 -3 -3 11 -17 14 -13 28 -23 33 -20 4 2 6 -1 5 -6 -2 -6
12 -24 31 -40 20 -19 30 -35 25 -43 -4 -8 -3 -10 4 -5 13 8 62 -32 62 -51 0
-7 5 -13 11 -13 5 0 7 6 3 13 -6 8 -3 8 9 -1 9 -8 15 -19 14 -25 -1 -6 9 -16
23 -24 14 -7 21 -13 16 -13 -6 0 -2 -6 9 -13 11 -9 15 -19 10 -27 -5 -8 -4
-11 3 -6 13 8 62 -32 62 -51 0 -7 9 -13 21 -13 11 0 18 -4 14 -9 -3 -6 4 -15
15 -21 11 -6 18 -15 15 -21 -4 -5 3 -9 14 -9 18 0 25 -10 23 -31 -1 -4 9 -15
21 -25 l22 -19 -20 25 c-11 14 -3 9 17 -10 21 -19 38 -41 38 -47 0 -7 5 -12
12 -10 6 1 17 -8 23 -20 7 -13 14 -21 17 -18 3 3 17 -10 32 -30 15 -19 22 -35
15 -35 -8 0 -8 -4 1 -15 11 -13 10 -14 -2 -10 -11 4 -18 -2 -22 -19 -3 -14
-12 -25 -18 -23 -7 1 -12 -4 -13 -10 0 -7 -10 -20 -23 -29 -13 -9 -21 -22 -18
-30 3 -8 -1 -14 -10 -14 -9 0 -12 -5 -8 -12 5 -7 0 -9 -14 -6 -15 4 -19 2 -15
-9 5 -13 1 -12 -21 2 -18 12 -25 23 -21 34 3 8 3 12 -1 9 -4 -4 -19 6 -34 22
-16 17 -33 30 -38 30 -6 0 -14 9 -17 20 -4 11 -11 18 -16 15 -5 -4 -9 1 -9 9
0 9 -7 16 -16 16 -8 0 -12 5 -9 10 3 6 -1 10 -10 10 -9 0 -13 5 -10 10 3 6 1
10 -5 10 -6 0 -8 4 -5 10 3 6 -1 7 -9 4 -11 -4 -16 0 -16 10 0 9 -5 16 -11 16
-13 0 -49 38 -49 52 0 5 -5 6 -10 3 -6 -3 -10 1 -10 9 0 9 -7 16 -16 16 -8 0
-12 5 -9 10 3 6 2 10 -3 10 -14 0 -52 36 -52 49 0 6 -5 11 -11 11 -5 0 -7 4
-4 10 3 6 -1 7 -9 4 -11 -4 -16 0 -16 11 0 9 -4 14 -9 11 -5 -3 -11 4 -14 15
-3 12 -10 18 -15 15 -6 -3 -12 1 -15 8 -3 8 -1 17 6 20 7 3 2 3 -10 0 -17 -4
-23 -1 -23 11 0 9 -4 13 -10 10 -5 -3 -10 -1 -10 5 0 17 -28 42 -40 35 -5 -3
-7 0 -5 7 6 14 -37 58 -56 58 -5 0 -9 8 -7 18 2 11 -3 16 -14 14 -12 -2 -18 4
-18 15 0 15 -2 16 -10 3 -8 -13 -10 -12 -10 3 0 21 -24 49 -34 40 -3 -4 -6 1
-6 11 0 9 -5 14 -10 11 -6 -3 -10 -1 -10 5 0 15 -25 40 -40 40 -6 0 -8 5 -5
10 3 6 -4 10 -17 10 -15 0 -19 3 -10 8 9 6 6 12 -12 22 -14 7 -23 17 -20 22 3
4 -2 8 -10 8 -8 0 -18 10 -21 21 -6 17 -9 19 -16 8 -6 -10 -9 -8 -9 9 0 13 -4
21 -9 18 -5 -3 -11 4 -14 15 -3 11 -15 23 -26 26 -11 3 -18 10 -14 16 4 6 0 8
-10 4 -11 -4 -14 -2 -10 9 3 10 -2 14 -18 14 -16 0 -20 3 -11 8 9 6 6 12 -12
22 -14 7 -23 17 -20 22 3 4 -2 8 -11 8 -8 0 -19 8 -22 18 -9 22 -23 36 -46 45
-9 3 -22 18 -29 32 -6 14 -18 25 -25 25 -8 0 -11 5 -8 10 3 6 0 10 -8 10 -7 0
-24 12 -38 27 -13 14 -18 23 -11 19 6 -4 12 -5 12 -1 0 3 -11 10 -25 15 -14 5
-25 16 -25 25 0 8 -7 15 -16 15 -9 0 -12 5 -8 12 5 7 2 9 -9 5 -12 -4 -14 -2
-10 10 4 11 2 14 -5 9 -7 -4 -12 -1 -12 8 0 9 -5 16 -10 16 -6 0 -23 12 -38
26 -15 15 -21 23 -14 20 6 -4 12 -5 12 -1 0 3 -11 10 -25 15 -14 5 -25 16 -25
24 0 8 -5 18 -12 22 -7 5 -8 2 -3 -7 5 -8 -4 -3 -18 10 -15 14 -27 30 -27 37
0 7 -9 15 -19 19 -13 4 -18 12 -14 22 4 10 2 14 -4 10 -13 -8 -84 58 -75 69 4
4 -2 4 -12 0 -16 -5 -17 -4 -6 9 11 13 10 14 -2 10 -8 -3 -21 2 -29 11 -12 15
-12 17 0 9 10 -5 12 -4 7 3 -4 7 -12 12 -17 12 -15 0 -39 26 -32 34 4 3 -1 6
-11 6 -9 0 -14 5 -11 10 3 6 -1 10 -10 10 -9 0 -19 9 -22 20 -3 11 -9 17 -14
14 -5 -3 -9 3 -9 12 0 10 -3 14 -7 11 -10 -10 -54 43 -46 56 4 7 0 6 -10 -2
-15 -12 -17 -11 -18 5 -1 11 -1 22 0 26 0 4 -5 5 -12 2 -16 -6 -70 53 -62 67
4 5 3 9 -2 8 -4 -1 -17 -1 -28 0 -17 1 -18 3 -5 11 8 5 10 10 4 10 -15 0 -54
35 -54 49 0 6 -10 11 -22 11 -19 0 -20 2 -8 10 9 6 10 10 3 10 -17 0 -64 46
-56 53 3 4 -1 7 -11 7 -11 0 -14 4 -10 12 5 7 2 9 -9 5 -12 -4 -14 -2 -10 10
4 11 2 14 -5 9 -7 -4 -12 -1 -12 8 0 9 -4 16 -9 16 -11 0 -111 99 -111 109 0
3 -10 11 -22 16 -13 6 -28 20 -34 33 -6 13 -15 24 -20 25 -5 1 -8 5 -6 10 1 4
-3 7 -9 7 -15 0 -39 26 -32 34 4 3 0 6 -8 6 -15 0 -69 55 -69 71 0 9 -15 13
-33 10 -5 -1 -6 3 -3 8 4 5 -3 16 -14 24 -11 7 -17 17 -13 20 3 4 -1 7 -11 7
-9 0 -14 5 -11 10 3 6 -3 10 -14 10 -19 0 -25 10 -23 31 1 4 -11 13 -26 21
-15 7 -28 20 -30 28 -2 8 -10 19 -19 24 -8 4 -22 16 -31 27 -8 10 -20 15 -25
12 -6 -3 -7 -1 -3 6 4 6 0 14 -8 17 -9 3 -16 12 -16 20 0 8 -6 13 -12 12 -7
-2 -12 2 -11 9 1 6 -11 17 -27 25 -28 12 -34 21 -31 41 0 4 -5 7 -13 7 -8 0
-17 7 -20 16 -3 9 -11 12 -18 8 -7 -5 -9 -2 -5 8 4 11 -1 18 -15 21 -11 3 -17
10 -14 15 3 5 -6 14 -20 21 -14 6 -22 16 -19 21 3 6 0 10 -8 10 -8 0 -18 7
-21 16 -3 8 -11 12 -17 8 -8 -4 -9 -3 -5 4 4 7 2 12 -3 12 -6 0 -11 7 -11 15
0 9 -6 12 -17 8 -11 -4 -14 -3 -9 5 4 7 1 15 -8 18 -9 3 -16 12 -16 20 0 8 -6
13 -12 11 -7 -1 -12 4 -11 11 2 6 -2 12 -8 12 -5 0 -7 6 -3 13 5 8 2 8 -9 -2
-15 -11 -17 -11 -17 2 0 8 -7 18 -16 21 -8 3 -12 10 -9 16 3 5 -1 10 -9 10 -8
0 -18 9 -21 20 -3 11 -13 20 -21 20 -8 0 -14 7 -14 15 0 9 -6 12 -17 8 -11 -4
-14 -3 -9 5 4 7 1 15 -8 18 -9 3 -16 13 -16 21 0 8 -4 12 -8 9 -13 -8 -44 33
-35 47 4 7 0 6 -10 -2 -15 -12 -17 -12 -11 4 5 13 4 16 -4 11 -7 -4 -12 -1
-12 8 0 9 -7 16 -15 16 -8 0 -15 5 -15 11 0 5 -4 7 -10 4 -6 -4 -7 1 -3 12 3
10 3 15 -1 11 -10 -8 -47 23 -40 34 3 4 -2 8 -10 8 -15 0 -21 12 -17 34 1 5
-5 4 -13 -4 -9 -7 -16 -8 -16 -3 0 15 -47 63 -54 56 -3 -4 -6 1 -6 11 0 9 -5
14 -10 11 -6 -4 -9 -2 -8 3 2 5 -9 21 -24 35 -15 14 -24 28 -21 31 6 5 -12 10
-29 7 -4 0 -10 8 -13 19 -4 11 -11 20 -16 20 -6 0 -7 5 -4 10 3 6 1 10 -5 10
-6 0 -30 20 -54 45 -24 24 -46 41 -50 38 -3 -4 -6 0 -6 8 0 16 -40 55 -53 51
-5 -1 -6 2 -2 8 3 5 1 10 -5 10 -6 0 -8 5 -5 11 4 6 0 9 -11 7 -10 -2 -19 2
-19 7 0 6 -11 22 -24 35 -13 14 -20 19 -16 11 5 -9 4 -12 -3 -7 -6 4 -8 14 -5
22 4 11 0 15 -13 12 -10 -2 -19 2 -19 9 0 6 -12 22 -27 36 -15 14 -24 28 -21
31 6 6 -13 10 -31 7 -5 -1 -6 5 -3 14 4 9 1 15 -7 15 -8 0 -21 10 -30 23 -9
12 -14 16 -10 8 5 -9 3 -12 -4 -7 -7 4 -12 16 -12 27 0 11 -4 18 -9 14 -5 -3
-19 8 -31 25 -12 17 -26 27 -32 24 -6 -4 -8 -2 -4 4 7 12 23 10 84 -12z m5108
12 c-5 9 2 12 26 11 30 0 31 -1 11 -9 -27 -11 -31 -22 -5 -13 14 5 13 3 -3
-10 -11 -8 -23 -13 -28 -10 -4 2 -6 -1 -5 -9 2 -7 -3 -12 -9 -10 -7 1 -13 -1
-13 -5 0 -5 -10 -19 -21 -33 -11 -14 -17 -19 -13 -11 5 9 3 12 -4 7 -7 -4 -12
-14 -12 -22 0 -8 -5 -14 -11 -14 -5 0 -7 -5 -4 -10 4 -6 3 -10 -2 -9 -19 3
-34 -2 -29 -10 3 -5 -1 -12 -10 -15 -8 -3 -12 -11 -9 -16 4 -6 3 -10 -2 -9 -4
1 -15 1 -23 0 -13 -1 -13 -2 0 -11 12 -8 12 -10 1 -10 -8 0 -20 -8 -28 -17 -8
-10 -11 -12 -7 -4 5 9 3 12 -4 7 -7 -4 -12 -11 -12 -16 0 -5 -17 -27 -37 -47
-20 -21 -33 -32 -28 -24 5 10 4 12 -3 7 -7 -4 -12 -12 -12 -17 0 -19 -110
-120 -123 -113 -6 5 -5 -1 3 -11 8 -10 10 -16 4 -12 -6 3 -18 -3 -27 -14 -10
-11 -23 -17 -29 -13 -7 5 -8 3 -3 -5 8 -14 -49 -73 -61 -62 -4 3 -4 -2 -1 -12
4 -10 3 -16 -2 -12 -6 3 -13 -1 -18 -8 -4 -7 -18 -20 -29 -28 -12 -8 -22 -18
-24 -24 -1 -5 -7 -9 -12 -7 -6 2 -8 -4 -4 -13 3 -9 2 -14 -3 -11 -10 7 -52
-40 -43 -49 4 -4 2 -6 -3 -5 -21 5 -36 0 -30 -10 3 -5 1 -10 -5 -10 -6 0 -8
-5 -4 -12 4 -6 3 -8 -3 -5 -6 4 -19 -1 -29 -9 -10 -9 -12 -12 -4 -8 8 4 -7
-13 -33 -39 -26 -27 -51 -46 -56 -43 -5 3 -8 -2 -7 -12 0 -10 -5 -16 -13 -14
-8 2 -11 -3 -8 -12 4 -9 2 -15 -2 -13 -13 3 -60 -50 -52 -60 3 -4 -3 -1 -13 7
-13 10 -17 10 -12 2 10 -16 -20 -46 -36 -36 -8 5 -7 0 2 -11 9 -11 10 -16 2
-11 -8 5 -15 -1 -21 -16 -6 -13 -10 -19 -10 -14 -1 12 -71 -63 -71 -75 0 -5
-5 -9 -11 -9 -15 0 -68 -58 -60 -65 3 -3 -3 -3 -13 1 -13 5 -17 4 -12 -4 4 -7
-6 -18 -24 -27 -33 -17 -40 -27 -12 -19 13 4 12 2 -3 -7 -11 -8 -23 -14 -27
-15 -5 -1 -11 -2 -15 -3 -5 -1 -2 -5 6 -10 11 -7 10 -10 -6 -15 -11 -4 -25
-16 -32 -29 -10 -19 -11 -19 -7 -2 5 19 5 19 -7 1 -7 -11 -33 -41 -59 -67 -27
-26 -48 -53 -48 -61 0 -10 -3 -9 -10 2 -8 12 -10 10 -10 -9 0 -13 -3 -22 -6
-19 -8 8 -54 -37 -54 -53 0 -11 -2 -11 -10 1 -8 12 -10 11 -10 -7 0 -16 -5
-21 -19 -18 -14 3 -18 -1 -14 -11 3 -8 0 -14 -7 -14 -6 0 -8 -5 -4 -12 4 -7 3
-8 -4 -4 -6 4 -18 -5 -27 -21 -10 -17 -14 -20 -11 -8 5 19 5 19 -7 1 -7 -10
-20 -26 -29 -35 -10 -8 -18 -22 -18 -31 0 -13 -1 -13 -10 0 -8 13 -10 12 -10
-4 0 -13 -5 -16 -16 -12 -15 6 -15 4 -3 -11 7 -10 10 -15 5 -11 -10 9 -36 -14
-28 -26 3 -5 0 -6 -7 -2 -6 4 -14 0 -17 -8 -3 -9 -10 -13 -15 -10 -8 5 -13
-10 -10 -29 1 -5 -3 -6 -9 -2 -5 3 -10 1 -10 -4 0 -6 -7 -11 -16 -11 -8 0 -13
-4 -10 -9 3 -5 -1 -12 -9 -15 -8 -3 -14 -11 -13 -18 2 -7 -2 -12 -9 -13 -6 0
-26 -17 -44 -37 -17 -21 -39 -38 -48 -38 -14 0 -14 -2 -1 -10 12 -8 12 -10 1
-10 -8 0 -20 -8 -28 -17 -8 -10 -11 -12 -7 -4 5 9 3 12 -4 7 -7 -4 -12 -13
-12 -19 0 -7 -11 -21 -25 -31 -13 -10 -22 -22 -19 -27 3 -5 2 -9 -3 -9 -4 0
-23 -14 -42 -30 -18 -17 -38 -30 -42 -30 -5 0 -8 -5 -7 -12 2 -6 -8 -17 -22
-25 -14 -7 -19 -13 -10 -13 12 -1 11 -3 -3 -11 -9 -5 -21 -8 -26 -4 -5 3 -8
-3 -7 -12 2 -11 -9 -25 -27 -36 l-31 -19 -40 44 c-22 23 -44 42 -49 40 -5 -1
-6 1 -3 6 3 5 -2 18 -10 28 -9 10 -12 12 -8 4 4 -8 -3 -5 -15 8 -12 12 -19 27
-16 32 3 6 -1 7 -9 4 -9 -3 -16 -1 -16 5 0 6 5 11 12 11 6 0 9 3 5 6 -8 8 16
33 26 27 4 -2 7 3 7 12 0 9 5 13 10 10 6 -3 10 -2 10 3 0 16 62 82 77 82 7 0
12 6 11 13 -2 6 3 11 10 9 11 -2 16 10 13 31 0 4 2 6 6 6 20 -3 34 2 28 11 -3
6 2 10 11 10 10 0 15 3 12 6 -7 7 39 54 53 54 6 0 7 5 4 10 -3 6 2 10 11 10
10 0 15 3 11 6 -10 10 22 36 34 28 7 -4 9 -3 6 3 -9 14 23 55 38 49 9 -3 12 2
10 14 -3 14 1 18 16 15 10 -2 18 -1 18 3 -3 18 2 33 9 29 4 -3 13 1 20 9 7 8
10 14 6 14 -4 0 5 9 20 21 14 11 24 25 21 30 -4 5 1 6 9 3 11 -4 16 0 16 11 0
10 5 13 12 9 8 -5 9 -2 5 10 -4 9 -3 15 2 12 5 -3 14 1 21 9 7 8 16 13 20 10
5 -3 6 5 3 17 -3 17 -2 19 5 9 8 -11 12 -10 21 6 5 11 7 24 3 28 -4 5 -2 5 5
1 6 -3 18 3 27 15 8 12 19 18 25 14 7 -4 10 -1 9 7 -2 7 3 12 10 10 8 -1 11 2
7 8 -6 10 41 60 56 60 5 0 9 7 9 16 0 8 4 13 9 9 5 -3 12 4 16 15 6 18 17 24
37 21 4 0 4 7 1 16 -4 9 -2 14 3 11 5 -3 15 0 22 8 7 8 10 14 6 14 -4 0 3 9
16 20 12 11 27 17 33 13 6 -4 8 0 4 10 -4 11 -1 17 8 17 8 0 18 12 21 26 5 19
9 22 15 12 7 -10 9 -8 9 6 0 11 3 16 7 13 3 -4 16 7 28 23 12 16 25 27 28 23
4 -3 7 1 7 11 0 9 11 22 25 28 14 6 25 18 25 26 0 9 3 13 6 9 9 -9 55 36 50
50 -3 7 -2 12 2 10 11 -3 52 29 45 36 -3 4 2 7 13 7 14 0 16 2 6 9 -10 6 -7
10 12 15 14 3 25 12 23 18 -1 7 3 12 10 13 13 0 53 43 53 57 0 4 3 7 8 7 19
-3 25 2 12 11 -14 9 -8 12 16 9 8 -1 44 42 44 54 0 5 7 6 16 3 12 -5 15 -2 10
10 -4 11 1 18 14 21 11 3 17 10 13 16 -4 6 0 8 11 4 10 -4 15 -3 11 3 -7 12
20 42 29 33 3 -4 6 -1 6 5 0 17 37 52 46 44 4 -4 4 2 0 13 -4 11 -4 16 0 12 9
-9 35 13 28 24 -3 5 3 6 13 2 10 -3 15 -3 11 1 -8 9 27 46 44 46 6 0 9 3 5 6
-8 8 18 34 33 34 6 0 8 5 4 12 -5 7 -2 9 9 5 12 -4 15 -1 12 15 -3 11 -2 18 2
15 3 -4 12 1 20 11 8 9 11 11 7 3 -5 -10 -3 -12 5 -7 7 5 10 14 7 22 -3 8 -2
13 2 12 9 -3 67 55 64 65 -1 4 1 6 5 6 22 -4 33 2 27 13 -5 8 -2 9 10 5 11 -4
15 -3 11 4 -8 12 43 62 55 54 5 -3 7 3 5 14 -3 15 1 19 15 16 13 -3 17 1 13
11 -4 10 0 12 13 7 12 -4 15 -3 9 6 -6 10 -3 11 14 2 16 -9 21 -9 21 0 0 6 7
8 15 5 9 -3 18 1 22 10 5 13 7 13 14 2 6 -9 9 -10 9 -1 0 7 6 10 14 7 7 -3 16
1 19 9 3 9 16 13 31 12 14 -2 26 0 26 5 0 4 7 11 16 14 8 3 12 2 9 -4 -9 -15
2 -12 19 6 11 11 16 12 16 3 0 -7 7 -5 16 7 8 10 13 13 9 7 -3 -7 -2 -13 4
-13 5 0 11 4 13 10 2 5 12 11 23 13 11 1 26 7 34 11 10 7 12 5 7 -5 -5 -9 -3
-9 6 1 7 9 21 14 32 12 13 -3 16 0 10 10 -6 9 -2 9 11 -2 11 -9 16 -10 11 -2z
m220 -171 c-2 -6 -8 -24 -14 -39 -6 -15 -9 -36 -7 -47 3 -15 0 -18 -12 -14
-10 4 -14 2 -9 -5 3 -6 2 -13 -3 -16 -5 -3 -7 -16 -3 -28 3 -14 2 -19 -6 -14
-7 4 -12 2 -12 -3 0 -6 6 -11 13 -11 8 0 9 -3 1 -8 -6 -4 -10 -17 -9 -29 1
-13 -7 -30 -17 -39 -14 -13 -15 -20 -7 -31 9 -10 8 -13 -6 -13 -15 0 -15 -2
-5 -16 11 -12 11 -15 -1 -12 -8 2 -13 -3 -11 -9 1 -7 -4 -13 -10 -14 -7 0 -4
-4 7 -9 17 -7 17 -9 3 -9 -11 -1 -15 -6 -12 -16 4 -8 1 -15 -6 -15 -7 0 -10
-7 -6 -15 3 -8 1 -15 -4 -15 -5 0 -12 -16 -16 -35 -3 -19 -10 -33 -14 -30 -4
3 -10 -5 -13 -16 -3 -11 -15 -23 -26 -26 -11 -3 -18 -9 -15 -14 3 -5 -2 -9
-11 -9 -9 0 -13 -4 -10 -10 3 -5 -1 -10 -10 -10 -9 0 -13 -4 -10 -10 3 -5 -1
-10 -9 -10 -9 0 -15 -6 -14 -12 2 -7 -5 -12 -14 -10 -12 2 -16 -3 -13 -17 2
-12 1 -20 -3 -20 -20 3 -32 -2 -27 -11 3 -5 -1 -10 -9 -10 -9 0 -15 -6 -14
-12 2 -8 -5 -12 -16 -10 -10 2 -15 -1 -12 -7 4 -6 -2 -19 -13 -30 -11 -11 -16
-22 -13 -26 4 -3 -2 -3 -12 1 -14 5 -17 4 -12 -4 4 -7 1 -12 -9 -12 -9 0 -13
-4 -10 -10 3 -5 -1 -10 -10 -10 -9 0 -13 -4 -10 -10 3 -5 -1 -10 -10 -10 -9 0
-13 -4 -10 -10 3 -5 -1 -10 -9 -10 -9 0 -15 -6 -13 -12 1 -8 -6 -12 -17 -10
-10 2 -15 -1 -12 -6 8 -13 -42 -72 -60 -72 -9 0 -12 -4 -9 -10 3 -5 -1 -10
-10 -10 -9 0 -13 -4 -10 -10 6 -9 -8 -15 -29 -11 -5 1 -3 -5 4 -14 11 -13 10
-14 -5 -9 -13 5 -16 4 -11 -4 4 -7 1 -12 -9 -12 -9 0 -13 -4 -10 -10 3 -5 -1
-10 -10 -10 -9 0 -13 -4 -10 -10 3 -5 -1 -10 -10 -10 -9 0 -13 -4 -10 -10 3
-5 -2 -10 -11 -10 -10 0 -14 -3 -11 -6 8 -8 -95 -113 -105 -107 -5 2 -8 -3 -8
-12 0 -9 -4 -13 -10 -10 -5 3 -10 -1 -10 -10 0 -9 -4 -13 -10 -10 -5 3 -10 -1
-10 -10 0 -9 -4 -13 -10 -10 -5 3 -10 -1 -10 -10 0 -10 -5 -13 -12 -9 -8 5 -9
2 -5 -10 4 -10 3 -15 -3 -11 -6 3 -10 1 -10 -5 0 -6 -4 -8 -10 -5 -5 3 -10 -1
-10 -9 0 -8 -5 -18 -12 -22 -7 -5 -8 -2 -3 7 4 8 -2 4 -14 -9 -12 -12 -19 -27
-16 -32 4 -6 -1 -7 -11 -3 -12 4 -15 3 -10 -5 4 -7 1 -12 -9 -12 -11 0 -15 -5
-11 -15 3 -8 0 -14 -7 -12 -7 1 -11 -4 -9 -12 3 -12 0 -12 -12 -1 -14 11 -16
9 -16 -9 0 -12 -4 -19 -10 -16 -9 6 -14 -8 -11 -28 1 -5 -3 -6 -9 -2 -5 3 -20
-4 -32 -16 -13 -12 -17 -18 -9 -14 9 5 12 4 7 -3 -4 -7 -13 -12 -21 -12 -8 0
-17 -5 -21 -12 -5 -7 -2 -9 7 -4 8 4 5 0 -5 -8 -11 -9 -23 -16 -28 -16 -4 0
-4 -7 -1 -17 4 -10 2 -14 -4 -10 -6 4 -19 -1 -30 -11 -10 -9 -12 -12 -3 -7 13
9 13 8 2 -7 -8 -10 -22 -20 -33 -23 -11 -4 -17 -11 -14 -16 4 -5 -5 -13 -19
-19 -14 -5 -26 -12 -26 -15 0 -4 6 -3 13 0 6 4 3 -1 -8 -10 -11 -9 -19 -21
-17 -26 1 -6 -1 -8 -6 -5 -5 3 -18 -2 -28 -10 -10 -9 -12 -13 -4 -9 10 4 9 2
-2 -8 -10 -8 -18 -20 -18 -28 0 -11 -2 -11 -10 1 -8 13 -10 13 -10 -1 0 -9 -8
-23 -17 -30 -14 -12 -16 -12 -8 0 6 10 4 12 -4 7 -7 -5 -10 -15 -7 -23 3 -8 2
-11 -3 -8 -5 3 -16 -4 -24 -16 -11 -15 -16 -17 -21 -7 -3 7 -4 3 -2 -10 2 -12
0 -20 -5 -16 -5 3 -9 0 -9 -6 0 -6 -4 -9 -9 -5 -5 3 -12 -3 -16 -14 -3 -11
-13 -25 -23 -33 -16 -12 -16 -11 -2 7 14 19 14 19 -3 6 -10 -8 -15 -21 -12
-30 3 -8 3 -12 -1 -8 -4 4 -21 -8 -37 -26 -17 -17 -27 -25 -23 -17 4 8 1 7 -6
-3 -23 -32 -40 -53 -32 -38 5 10 3 12 -5 7 -7 -5 -10 -14 -7 -22 3 -8 2 -13
-2 -13 -17 3 -35 -2 -29 -7 7 -8 -59 -74 -74 -74 -6 0 -9 -6 -6 -14 4 -10 0
-13 -14 -11 -18 4 -19 2 -7 -12 9 -12 9 -15 1 -9 -8 4 -13 2 -13 -4 0 -6 -4
-8 -10 -5 -5 3 -10 2 -10 -2 0 -5 -7 -18 -16 -29 -8 -10 -12 -13 -8 -5 5 10 3
12 -5 7 -7 -5 -10 -15 -6 -23 5 -14 3 -14 -12 -2 -11 9 -14 10 -9 2 4 -7 2
-13 -3 -13 -6 0 -10 -6 -9 -12 2 -7 -3 -12 -9 -10 -7 1 -13 -5 -13 -14 0 -8
-4 -12 -10 -9 -5 3 -10 -1 -10 -10 0 -9 -4 -13 -10 -10 -5 3 -10 -1 -10 -9 0
-8 -15 -25 -32 -37 -18 -13 -34 -27 -36 -31 -2 -4 -8 -8 -13 -8 -6 0 -7 5 -4
10 3 6 -1 10 -10 10 -8 0 -20 10 -25 23 -5 12 -9 18 -9 13 -1 -5 -13 4 -28 20
-15 16 -31 28 -36 26 -5 -1 -6 1 -3 6 3 5 -2 18 -10 28 -9 10 -12 12 -8 4 4
-9 -2 -6 -13 5 -11 11 -19 26 -19 32 3 19 58 73 68 67 4 -3 8 -1 8 5 0 15 146
162 154 154 3 -3 6 -1 6 4 0 18 77 96 89 89 6 -4 8 2 6 14 -2 11 1 19 8 17 6
-1 11 5 12 13 0 9 8 14 20 12 11 -2 17 0 12 4 -9 10 215 234 227 227 5 -4 6 2
2 13 -4 10 -4 15 0 11 11 -10 35 13 27 27 -4 6 2 4 12 -4 10 -8 16 -10 12 -3
-9 14 41 75 54 67 5 -3 9 2 9 11 0 8 7 18 15 21 8 4 14 9 12 13 -2 3 26 33 62
66 36 33 59 51 51 40 -14 -19 -14 -19 3 -6 9 7 17 20 17 28 0 7 7 16 15 19 8
4 13 10 10 14 -3 4 9 13 25 19 17 5 30 13 30 16 0 3 -6 3 -12 -1 -9 -5 -9 -3
1 9 7 9 17 15 21 12 4 -3 10 4 13 15 3 11 17 24 31 30 14 5 26 12 26 15 0 4
-6 3 -12 -1 -7 -3 1 8 19 25 18 17 37 31 42 31 6 0 11 7 11 16 0 11 5 14 16
10 15 -6 15 -4 3 11 -8 9 -9 14 -3 10 7 -4 15 0 18 9 3 9 11 12 18 8 7 -4 10
-4 6 0 -8 10 23 47 34 40 5 -3 7 0 6 8 -2 7 5 12 14 12 11 -1 14 4 10 14 -4
12 -1 14 13 9 16 -7 16 -5 4 10 -7 10 -10 15 -6 12 4 -4 35 20 68 52 34 33 65
59 71 59 5 0 6 4 3 10 -3 5 3 15 15 22 11 7 20 19 20 26 0 7 5 10 10 7 6 -3
10 2 11 12 0 10 3 13 6 6 2 -7 9 -13 14 -13 6 0 7 4 4 10 -6 10 60 80 76 80 6
0 8 4 5 8 -7 11 40 53 49 44 4 -4 5 2 3 13 -2 15 2 19 16 17 10 -2 15 1 12 7
-4 6 2 16 14 23 11 7 20 19 20 27 0 11 3 11 15 1 12 -10 14 -8 10 9 -2 12 0
19 4 17 4 -3 20 10 36 29 15 19 31 33 35 30 4 -3 10 5 13 16 3 12 10 18 17 14
6 -3 9 -2 8 3 -3 11 69 82 83 82 6 0 8 4 5 9 -3 5 9 23 28 39 19 17 32 33 28
37 -3 3 2 3 13 -1 11 -4 17 -4 13 1 -9 9 162 185 180 185 7 0 11 4 7 9 -3 5 8
19 25 31 16 12 30 28 30 37 0 13 2 14 17 2 9 -8 14 -9 10 -3 -3 6 3 23 15 37
21 26 39 28 34 4z m-5556 -8 c0 -5 -4 -9 -10 -9 -5 0 -10 7 -10 16 0 8 5 12
10 9 6 -3 10 -10 10 -16z m46 -42 c13 -10 21 -23 18 -29 -4 -6 -2 -8 4 -4 12
7 64 -39 54 -48 -3 -3 -1 -6 5 -6 14 0 123 -107 116 -114 -4 -3 1 -6 11 -6 9
0 14 -4 11 -10 -3 -5 1 -10 10 -10 9 0 13 -4 10 -10 -3 -5 -2 -10 3 -10 14 0
121 -107 115 -114 -4 -3 1 -6 11 -6 9 0 14 -4 11 -10 -3 -5 -1 -10 5 -10 15 0
41 -26 33 -34 -4 -3 1 -6 11 -6 9 0 14 -4 11 -10 -3 -5 -1 -10 4 -10 14 0 51
-37 51 -50 0 -5 10 -10 23 -10 18 0 19 -2 7 -10 -8 -5 -10 -10 -5 -10 15 0 65
-46 58 -54 -3 -3 2 -6 12 -6 10 0 15 -3 12 -7 -4 -3 3 -11 16 -17 12 -6 26
-21 32 -34 5 -12 13 -22 17 -22 11 0 68 -58 68 -70 0 -5 7 -10 16 -10 8 0 12
-4 9 -10 -3 -5 1 -10 10 -10 9 0 19 -9 22 -20 3 -11 9 -20 13 -20 10 0 90 -76
90 -86 0 -5 10 -14 23 -19 12 -6 26 -20 32 -32 5 -13 13 -23 17 -23 10 0 68
-60 68 -71 0 -5 5 -9 10 -9 6 0 27 -18 47 -40 21 -22 43 -40 50 -40 12 0 17
-12 14 -32 0 -4 8 -10 19 -13 11 -4 20 -10 20 -15 0 -5 9 -12 20 -15 11 -3 20
-12 20 -19 0 -15 46 -57 54 -49 3 3 3 -4 1 -17 -4 -19 -2 -20 12 -8 12 9 15 9
9 0 -4 -7 -1 -15 8 -18 9 -3 13 -10 10 -15 -3 -5 1 -9 9 -9 7 0 19 -11 26 -24
7 -13 24 -30 37 -37 13 -6 26 -21 30 -31 3 -10 10 -16 15 -12 6 3 13 -3 16
-14 3 -14 10 -19 21 -15 10 4 13 2 8 -5 -4 -6 4 -18 19 -28 14 -9 25 -23 25
-30 0 -8 4 -14 8 -14 17 0 52 -42 45 -53 -4 -7 0 -6 10 2 15 11 17 11 17 -2 0
-8 7 -18 16 -21 8 -3 12 -10 9 -16 -3 -5 -2 -10 4 -10 6 0 25 -15 43 -32 18
-18 37 -32 41 -30 5 1 6 -2 2 -7 -3 -6 4 -15 15 -21 11 -6 18 -15 15 -21 -4
-5 1 -9 9 -9 9 0 16 -5 16 -11 0 -5 4 -7 10 -4 6 4 7 -1 3 -12 -3 -10 -3 -15
1 -11 10 8 47 -23 40 -34 -3 -4 1 -8 9 -8 8 0 18 -7 21 -16 3 -8 10 -13 15
-10 5 3 14 -8 21 -25 10 -22 15 -27 21 -17 7 10 9 9 9 -4 0 -10 5 -18 10 -18
6 0 10 -6 10 -14 0 -8 9 -18 20 -21 11 -3 20 -13 20 -21 0 -8 4 -13 8 -10 5 3
16 -4 25 -15 9 -10 13 -19 9 -20 -4 0 3 -4 16 -9 12 -5 22 -16 22 -25 0 -8 7
-15 15 -15 9 0 20 -10 25 -22 5 -13 9 -19 9 -15 1 12 31 -20 31 -33 0 -6 4 -9
8 -6 10 6 43 -30 35 -38 -4 -3 -1 -6 6 -6 7 0 26 -13 42 -29 16 -16 29 -35 29
-42 0 -7 3 -10 6 -7 7 8 74 -57 74 -72 0 -6 4 -9 9 -5 6 3 15 -4 21 -15 6 -12
16 -18 23 -14 7 4 9 4 5 0 -8 -9 24 -45 35 -39 4 3 6 0 5 -5 -2 -5 9 -21 24
-35 15 -14 24 -28 21 -31 -4 -3 3 -6 15 -6 12 0 21 -3 21 -7 -3 -21 2 -33 16
-33 8 0 15 -5 15 -11 0 -5 4 -7 10 -4 6 3 10 1 10 -4 0 -6 18 -29 39 -50 22
-22 37 -42 34 -45 -6 -6 11 -8 23 -3 3 1 12 -11 20 -26 8 -15 19 -25 24 -22 6
4 10 -3 10 -14 0 -12 6 -20 13 -18 6 1 11 -4 10 -10 -2 -7 4 -13 12 -13 8 0
15 -5 15 -11 0 -6 7 -8 16 -5 8 3 13 2 10 -3 -7 -11 65 -86 78 -83 5 2 6 -4 3
-13 -4 -8 -2 -16 3 -16 6 -1 16 -2 23 -3 6 0 12 -6 12 -11 0 -6 10 -21 23 -35
12 -13 22 -27 22 -32 0 -4 6 -7 13 -5 6 1 11 -6 11 -15 -1 -10 2 -15 8 -12 13
8 39 -16 31 -30 -3 -6 -3 -8 1 -4 5 4 25 -11 46 -32 21 -21 41 -36 44 -33 3 4
6 -5 6 -18 0 -19 2 -21 10 -9 9 13 10 13 11 0 1 -8 1 -18 0 -22 0 -5 6 -8 14
-8 8 0 20 -9 27 -20 7 -11 20 -20 28 -20 13 0 13 -1 0 -10 -8 -5 -10 -10 -4
-10 17 0 59 -41 56 -54 -2 -6 -1 -8 3 -4 8 8 75 -57 75 -73 0 -8 5 -7 17 2 11
10 14 10 9 2 -4 -8 -2 -13 5 -13 7 0 10 -3 6 -6 -3 -4 9 -20 28 -37 19 -16 32
-34 29 -39 -3 -4 3 -11 13 -15 23 -8 99 -85 95 -96 -2 -5 5 -6 15 -3 9 4 14 4
11 0 -11 -10 20 -36 33 -28 8 4 9 3 5 -5 -9 -13 42 -71 63 -71 8 0 12 -3 8 -6
-7 -8 17 -34 32 -34 6 0 11 -7 11 -15 0 -14 13 -20 34 -16 5 1 4 -5 -4 -13
-10 -13 -10 -16 4 -16 9 0 16 -4 16 -10 0 -5 6 -10 13 -10 8 0 19 -12 25 -26
7 -14 17 -22 22 -19 6 3 10 -1 10 -9 0 -9 5 -16 11 -16 5 0 7 -6 3 -12 -5 -9
-2 -8 9 1 15 12 17 12 11 -3 -4 -10 0 -18 10 -22 9 -3 16 -13 16 -21 0 -13 3
-13 16 -3 8 8 14 9 13 4 -4 -22 2 -34 17 -34 8 0 13 -4 9 -9 -7 -12 29 -33 41
-23 5 4 2 -1 -5 -11 -11 -14 -11 -17 2 -17 8 0 18 -7 21 -16 3 -8 10 -12 16
-9 5 3 10 1 10 -5 0 -19 29 -42 42 -34 8 5 7 0 -2 -11 -9 -11 -10 -16 -2 -11
6 4 12 2 12 -3 0 -6 8 -11 17 -11 9 0 13 -3 10 -7 -4 -3 -2 -12 4 -20 9 -10 8
-13 0 -13 -7 0 -10 -4 -7 -9 3 -5 -1 -12 -10 -15 -10 -4 -13 -2 -8 6 4 7 3 8
-4 4 -7 -4 -12 -13 -12 -21 0 -8 -5 -17 -12 -21 -7 -5 -8 -2 -3 7 4 8 -5 2
-19 -14 -15 -15 -32 -24 -38 -21 -6 4 -8 3 -5 -3 4 -6 0 -16 -8 -23 -8 -7 -15
-9 -15 -4 0 5 -5 1 -11 -9 -7 -12 -17 -16 -31 -11 -15 4 -18 3 -13 -6 5 -9 4
-11 -4 -6 -6 4 -9 12 -6 17 4 5 -1 9 -10 9 -9 0 -13 5 -10 10 3 6 1 10 -5 10
-6 0 -8 4 -5 10 3 6 -1 7 -9 4 -11 -4 -16 0 -16 10 0 9 -7 16 -16 16 -11 0
-14 6 -9 23 4 12 3 17 -2 10 -10 -13 -45 12 -56 40 -4 10 -11 16 -16 12 -5 -3
-12 4 -16 14 -3 11 -15 23 -26 26 -16 5 -24 22 -21 46 1 4 -7 5 -17 2 -20 -5
-47 28 -33 41 3 4 -1 4 -11 0 -12 -4 -17 -1 -17 10 0 9 -4 16 -10 16 -14 0
-50 42 -44 51 3 5 -3 6 -12 2 -14 -5 -16 -3 -11 11 4 9 3 15 -1 12 -10 -6 -48
35 -44 47 1 5 -1 6 -6 3 -5 -3 -18 2 -28 10 -10 9 -13 12 -5 8 9 -5 12 -3 7 4
-4 7 -14 12 -23 12 -10 0 -13 6 -9 16 3 8 2 12 -4 9 -6 -3 -10 -1 -10 4 0 6
-7 11 -15 11 -14 0 -20 12 -16 33 1 5 -2 6 -7 3 -11 -6 -43 30 -34 39 4 4 2 6
-3 5 -24 -5 -37 1 -31 15 3 8 2 14 -2 14 -21 -4 -34 3 -43 25 -6 13 -22 29
-36 35 -16 7 -23 17 -19 26 3 10 -3 17 -19 21 -14 3 -22 10 -19 15 3 5 0 9 -6
9 -6 0 -8 4 -5 10 3 6 -1 7 -9 4 -11 -4 -16 0 -16 10 0 9 -5 16 -11 16 -5 0
-7 4 -4 10 3 6 -1 7 -9 4 -10 -4 -16 -1 -16 8 0 8 -12 20 -26 27 -17 7 -24 17
-20 27 3 8 2 12 -4 9 -6 -3 -10 -1 -10 4 0 6 -7 11 -16 11 -8 0 -12 5 -9 10 3
6 1 10 -5 10 -6 0 -8 4 -5 10 3 6 -1 7 -9 4 -11 -4 -16 0 -16 10 0 15 -12 21
-33 17 -5 -1 -5 3 -2 10 8 12 -29 51 -39 42 -5 -6 -10 12 -7 29 0 4 -7 4 -16
1 -13 -5 -15 -2 -10 11 4 10 3 15 -3 11 -6 -3 -10 -2 -10 4 0 5 -9 13 -21 16
-11 4 -25 18 -31 31 -6 13 -19 26 -30 30 -10 3 -15 10 -12 16 5 8 1 9 -10 5
-9 -4 -15 -3 -11 2 3 5 -1 16 -9 24 -8 8 -12 18 -8 21 3 4 -1 4 -11 0 -12 -4
-17 -1 -17 10 0 9 -7 16 -17 16 -9 0 -14 3 -10 6 8 8 -16 33 -25 27 -5 -2 -8
3 -8 11 0 16 -39 48 -51 41 -4 -3 -5 5 -3 17 2 13 2 18 -2 11 -3 -8 -11 -6
-25 8 -11 11 -17 24 -14 30 4 5 3 8 -2 7 -4 -2 -19 5 -33 15 -13 9 -21 17 -17
17 4 0 2 6 -5 14 -7 8 -16 12 -20 9 -5 -2 -8 3 -8 11 0 9 -7 16 -16 16 -8 0
-12 5 -9 10 6 9 -8 15 -29 11 -5 -1 -3 6 5 15 8 11 9 15 2 11 -11 -7 -53 24
-53 39 0 11 -28 33 -34 27 -3 -4 -6 -1 -6 6 0 16 -25 41 -40 41 -6 0 -9 3 -7
8 3 4 -1 13 -9 20 -11 10 -14 10 -15 0 0 -10 -2 -10 -6 -1 -2 7 -3 14 -1 15 6
6 -27 36 -34 31 -5 -2 -8 1 -8 7 0 6 -12 23 -27 38 -15 15 -22 20 -17 12 5 -9
-1 -4 -13 10 -13 14 -23 30 -23 35 0 6 -5 3 -10 -5 -8 -12 -10 -10 -10 9 0 16
-4 21 -14 18 -10 -4 -13 -1 -9 9 3 7 0 14 -7 14 -15 0 -41 26 -33 34 4 3 -1 6
-9 6 -9 0 -22 8 -29 18 -13 16 -13 16 5 2 14 -10 17 -11 12 -2 -4 7 -19 17
-32 22 -13 5 -24 17 -24 25 0 10 -5 13 -12 9 -8 -5 -9 -2 -5 9 3 9 3 16 -1 14
-12 -3 -72 50 -65 57 4 3 -2 6 -11 6 -13 0 -16 5 -12 16 4 10 2 15 -6 12 -14
-5 -59 37 -50 46 3 3 -1 6 -10 6 -20 0 -52 36 -43 49 3 7 0 8 -9 5 -11 -4 -16
0 -16 11 0 9 -4 14 -9 11 -5 -3 -11 3 -14 14 -3 11 -16 24 -30 29 -14 5 -28
15 -33 22 -5 8 -3 9 6 4 9 -5 11 -4 6 3 -4 7 -14 12 -22 12 -8 0 -12 5 -9 10
3 6 -4 10 -17 11 -13 0 -17 3 -10 6 9 3 3 12 -17 24 -17 10 -31 24 -31 29 0 6
-6 8 -12 4 -9 -5 -8 -2 1 9 12 15 12 17 -4 10 -15 -5 -17 -3 -12 11 4 9 3 15
-2 11 -5 -3 -12 -1 -16 5 -4 6 -11 7 -17 4 -7 -4 -8 -2 -4 4 4 7 2 12 -4 12
-6 0 -16 11 -22 25 -8 19 -14 22 -20 13 -5 -9 -8 -6 -8 10 0 13 -4 20 -10 17
-5 -3 -10 1 -10 9 0 8 -5 18 -12 22 -7 5 -8 3 -3 -6 6 -9 4 -11 -4 -6 -7 5
-10 15 -7 23 3 8 1 11 -5 8 -13 -9 -81 63 -73 77 4 7 2 8 -4 4 -7 -4 -12 -2
-12 3 0 6 -6 10 -12 9 -7 -2 -12 3 -10 10 1 6 -5 12 -14 12 -8 0 -12 5 -9 10
3 6 -1 10 -9 10 -8 0 -18 10 -21 21 -6 17 -9 19 -17 8 -7 -10 -9 -8 -5 8 3 15
1 20 -9 16 -9 -3 -14 1 -14 12 0 9 -4 13 -10 10 -5 -3 -10 1 -10 9 0 9 -6 15
-12 14 -7 -2 -12 3 -10 10 1 6 -3 12 -9 12 -5 0 -7 5 -3 12 4 6 3 8 -3 5 -12
-8 -56 27 -46 37 3 3 -1 6 -11 6 -9 0 -14 5 -11 10 3 6 1 10 -5 10 -13 0 -70
57 -70 70 0 4 -7 11 -16 14 -8 3 -12 11 -8 17 4 8 3 9 -5 5 -7 -5 -21 2 -35
17 -12 13 -31 29 -42 36 -15 10 -15 11 -1 7 25 -8 21 1 -8 16 -13 7 -36 29
-50 48 -14 18 -25 30 -25 25 0 -4 -11 5 -25 21 -14 16 -25 32 -25 36 0 5 -6 7
-12 5 -7 -1 -12 4 -11 11 2 6 -2 12 -8 12 -5 0 -7 6 -3 13 6 9 5 9 -7 0 -11
-9 -19 -4 -38 28 -14 21 -27 37 -29 34 -6 -6 -32 22 -32 34 0 6 -5 11 -11 11
-7 0 -27 16 -46 35 -19 19 -31 35 -27 35 5 0 -6 10 -23 23 -16 12 -30 26 -31
31 0 5 -11 14 -24 21 -13 6 -22 17 -21 23 2 6 -6 14 -17 17 -11 4 -20 13 -20
21 0 8 -5 13 -12 12 -6 -2 -17 7 -23 20 -7 13 -16 22 -21 21 -5 -1 -15 9 -21
22 -7 13 -13 20 -13 16 0 -4 -27 19 -60 52 -33 33 -68 65 -77 71 -16 10 -16
11 2 6 l20 -6 -20 15 c-57 43 -77 72 -78 113 0 6 -5 12 -10 12 -6 0 -7 3 -4 7
4 3 1 13 -6 21 -10 13 -9 14 3 7 12 -7 13 -6 3 6 -7 9 -14 25 -16 36 -2 12 -9
29 -17 39 -13 16 -13 17 0 9 13 -8 13 -7 1 8 -9 12 -10 17 -2 17 7 0 3 10 -9
22 -11 12 -18 29 -15 39 3 9 -1 24 -10 32 -17 18 -20 31 -4 21 6 -3 4 5 -5 18
-9 14 -13 28 -9 31 3 4 1 7 -5 7 -7 0 -12 14 -12 30 0 17 -4 30 -10 30 -5 0
-2 8 8 18 14 15 18 15 21 3 2 -8 14 -23 27 -34z m5375 -410 c-10 -9 -11 -8 -5
6 3 10 9 15 12 12 3 -3 0 -11 -7 -18z m-4090 -1534 c13 -16 12 -17 -3 -4 -10
7 -18 15 -18 17 0 8 8 3 21 -13z m773 -790 c3 -7 13 -13 21 -13 9 0 14 -4 10
-9 -7 -12 29 -33 41 -23 5 4 3 0 -4 -10 -11 -14 -10 -17 7 -23 12 -3 21 -13
21 -22 0 -13 3 -13 18 -2 9 7 14 10 10 5 -9 -11 10 -48 22 -41 5 3 12 0 16 -6
4 -7 3 -9 -4 -5 -6 3 -14 -4 -18 -16 -8 -27 -35 -49 -49 -40 -5 3 -3 -3 5 -13
9 -11 10 -16 3 -11 -8 4 -13 2 -13 -4 0 -6 -5 -8 -12 -4 -8 5 -9 2 -4 -11 5
-15 4 -16 -9 -5 -9 7 -15 9 -14 4 4 -23 -3 -35 -26 -46 -13 -6 -22 -14 -20
-18 3 -5 -2 -11 -11 -14 -8 -3 -12 -10 -9 -16 3 -6 -1 -7 -9 -4 -10 4 -16 1
-16 -8 0 -8 -11 -21 -25 -28 -14 -7 -23 -15 -21 -17 8 -8 -67 -82 -77 -76 -7
4 -8 0 -3 -12 5 -15 4 -16 -9 -5 -9 7 -15 9 -14 4 4 -21 -2 -35 -11 -29 -5 3
-10 -1 -10 -9 0 -8 -9 -18 -20 -21 -11 -4 -18 -10 -15 -15 3 -5 -4 -12 -16
-15 -11 -4 -18 -9 -15 -13 9 -8 -25 -42 -41 -42 -8 0 -12 -3 -10 -7 5 -10 -30
-43 -37 -36 -3 4 -6 1 -6 -5 0 -17 -42 -52 -54 -45 -6 4 -5 -1 3 -10 12 -15
12 -17 -4 -11 -12 5 -16 4 -12 -3 4 -6 0 -14 -9 -17 -8 -3 -12 -10 -9 -16 4
-6 -1 -7 -11 -3 -12 4 -15 3 -10 -5 6 -11 -5 -16 -25 -14 -4 1 -6 -6 -5 -16 0
-10 -5 -16 -13 -14 -8 2 -11 -3 -8 -12 4 -10 1 -13 -9 -9 -9 3 -14 -1 -14 -12
0 -10 -5 -13 -12 -9 -8 5 -9 2 -4 -11 5 -15 4 -16 -9 -5 -9 7 -15 9 -14 4 4
-21 -2 -35 -11 -29 -5 3 -10 1 -10 -4 0 -16 -37 -50 -46 -43 -4 4 -4 -1 -1
-10 4 -13 1 -16 -14 -13 -11 2 -17 0 -14 -6 4 -5 1 -9 -5 -9 -7 0 -10 -6 -7
-14 4 -10 0 -14 -13 -11 -13 3 -17 -1 -13 -11 3 -9 -1 -14 -13 -14 -9 0 -15
-3 -11 -6 10 -10 -22 -36 -34 -28 -7 4 -9 3 -6 -3 7 -11 -28 -53 -43 -53 -5 0
-15 -12 -22 -27 -7 -16 -20 -28 -28 -28 -9 0 -14 -8 -13 -20 1 -11 0 -14 -3
-7 -5 10 -9 10 -22 0 -12 -10 -14 -10 -8 0 4 6 2 12 -3 12 -6 0 -11 7 -11 16
0 10 -5 14 -16 10 -8 -3 -13 -2 -10 2 2 4 -2 18 -10 32 -7 14 -13 21 -14 17 0
-4 -6 -2 -14 5 -7 7 -11 19 -9 25 3 8 -2 13 -12 13 -11 0 -15 5 -12 15 4 8 1
17 -5 21 -7 4 -8 3 -4 -4 4 -7 5 -12 2 -12 -3 0 -10 10 -17 22 -10 19 -9 20 7
14 15 -6 16 -5 7 5 -10 10 -4 21 28 51 22 21 44 38 49 38 6 0 10 7 10 15 0 8
7 15 15 15 8 0 15 4 15 10 0 5 27 37 60 71 33 33 60 65 60 70 0 4 7 5 17 2 11
-4 14 -3 9 6 -5 8 -1 14 13 18 11 3 19 8 17 12 -6 9 91 100 100 93 4 -4 4 1 1
10 -3 10 -1 20 5 24 7 5 8 2 4 -7 -4 -8 -1 -6 7 3 8 10 18 14 22 10 5 -4 5 1
2 10 -4 12 -2 15 9 11 8 -3 14 -1 12 4 -4 11 477 493 493 493 7 0 9 3 6 6 -10
10 34 45 46 37 6 -3 7 -1 3 5 -8 13 12 39 31 39 7 0 14 -6 17 -14z m374 -372
c26 -25 46 -49 44 -54 -2 -5 4 -7 11 -4 9 3 19 -4 26 -19 6 -13 17 -24 26 -24
8 0 15 -5 15 -11 0 -5 -6 -7 -12 -3 -9 5 -9 2 1 -9 12 -15 11 -17 -3 -17 -10
0 -14 -4 -11 -10 3 -5 -1 -10 -9 -10 -17 0 -39 -34 -28 -44 3 -4 -1 -4 -11 0
-12 4 -17 1 -17 -10 0 -9 -6 -15 -12 -13 -7 1 -12 -6 -11 -16 0 -10 -1 -16 -4
-13 -9 9 -44 -14 -38 -25 4 -5 0 -9 -8 -9 -7 0 -20 -11 -27 -25 -7 -13 -16
-22 -20 -20 -3 2 -12 -5 -20 -15 -8 -10 -17 -17 -22 -14 -5 3 -7 2 -6 -3 2 -4
-5 -19 -15 -33 -9 -13 -17 -21 -17 -17 0 5 -7 1 -16 -7 -8 -9 -13 -20 -9 -26
4 -6 -1 -7 -11 -3 -12 4 -15 3 -10 -5 4 -7 1 -12 -9 -12 -12 0 -15 -5 -11 -17
4 -10 4 -14 0 -11 -10 10 -46 -11 -39 -23 4 -5 -1 -9 -9 -9 -9 0 -16 -7 -16
-16 0 -8 -4 -12 -10 -9 -5 3 -10 -2 -10 -11 0 -10 -3 -14 -6 -11 -7 7 -44 -30
-44 -44 0 -5 -7 -6 -15 -3 -9 4 -15 0 -15 -10 0 -8 -9 -20 -20 -26 -11 -6 -18
-15 -15 -21 4 -5 1 -9 -6 -9 -13 0 -49 -38 -49 -52 0 -4 -6 -7 -12 -5 -7 1
-12 -4 -11 -10 2 -7 -4 -13 -13 -13 -10 0 -14 -6 -11 -14 4 -11 1 -13 -10 -9
-11 4 -14 2 -9 -5 4 -7 1 -12 -6 -12 -8 0 -20 -9 -28 -19 -7 -11 -17 -18 -22
-15 -5 3 -8 2 -7 -3 3 -19 -2 -34 -10 -28 -5 3 -12 -4 -16 -15 -3 -11 -12 -19
-18 -17 -7 1 -11 -4 -10 -10 2 -7 -2 -13 -8 -13 -15 0 -39 -26 -32 -34 4 -3
-1 -6 -10 -6 -10 0 -17 -7 -17 -16 0 -8 -4 -13 -9 -9 -5 3 -12 -4 -16 -15 -3
-11 -12 -19 -18 -17 -7 1 -11 -4 -10 -10 2 -7 -4 -13 -12 -13 -8 0 -15 -7 -15
-16 0 -8 -3 -13 -7 -11 -9 6 -34 -19 -27 -26 3 -2 -7 -7 -21 -11 -14 -4 -25
-11 -25 -17 0 -8 6 -7 18 2 9 7 6 1 -8 -13 -14 -14 -31 -23 -39 -20 -9 3 -12
1 -7 -6 11 -18 2 -15 -24 8 -12 11 -27 17 -32 14 -4 -3 -7 -2 -6 3 2 4 0 8 -4
8 -3 0 -21 17 -39 38 -17 20 -35 37 -40 37 -12 0 -49 32 -49 43 0 4 5 5 12 1
8 -5 9 -2 5 10 -4 9 -3 15 1 12 4 -2 14 -1 22 5 11 6 12 9 2 9 -7 0 -10 5 -7
10 4 6 10 8 15 5 5 -3 12 1 17 8 4 8 17 19 28 26 18 11 18 12 1 7 -16 -6 -17
-4 -6 9 7 8 16 13 20 10 4 -3 11 2 14 11 4 9 13 14 22 10 9 -3 12 -2 9 5 -4 5
5 19 19 30 14 11 26 28 26 37 0 14 2 14 9 3 7 -11 10 -10 15 6 4 11 16 25 29
32 13 7 14 9 4 6 -10 -3 -15 -1 -12 5 3 6 13 10 21 10 8 0 14 5 14 11 0 5 6 7
13 3 8 -5 7 -2 -2 9 -12 15 -12 17 2 11 10 -3 20 2 27 16 6 11 26 30 43 42 18
11 23 17 12 14 -15 -4 -14 -2 5 11 14 10 44 36 67 60 24 24 48 43 55 43 9 0 8
3 -2 10 -13 8 -12 10 3 10 9 0 17 5 17 10 0 6 8 10 18 11 10 0 12 3 4 6 -8 3
3 16 27 34 22 16 48 40 57 54 9 14 22 25 30 25 7 0 16 4 19 10 3 6 -1 7 -12 4
-11 -3 -9 0 5 8 12 8 19 18 15 23 -4 4 -3 5 4 1 7 -4 17 2 23 14 6 11 17 20
25 20 7 0 17 4 20 10 3 6 -2 8 -12 5 -10 -3 -8 0 5 6 12 7 22 18 22 26 0 12
13 18 35 13 6 -1 7 1 3 5 -9 9 91 107 103 100 5 -4 6 1 3 10 -5 11 0 18 15 22
11 3 21 10 21 15 0 5 -6 6 -12 2 -8 -4 -10 -3 -5 2 5 5 14 9 20 9 7 1 11 7 9
14 -1 7 1 11 5 9 11 -6 52 39 44 49 -3 4 3 1 13 -7 14 -11 18 -11 12 -2 -9 14
20 53 36 49 5 -1 30 -22 56 -46z m837 -821 c10 -11 16 -20 13 -20 -3 0 -13 9
-23 20 -10 11 -16 20 -13 20 3 0 13 -9 23 -20z m-1894 -267 c13 -16 12 -17 -3
-4 -10 7 -18 15 -18 17 0 8 8 3 21 -13z m1289 -757 c0 -3 -4 -8 -10 -11 -5 -3
-10 -1 -10 4 0 6 5 11 10 11 6 0 10 -2 10 -4z m0 -120 c0 -3 -4 -8 -10 -11 -5
-3 -10 -1 -10 4 0 6 5 11 10 11 6 0 10 -2 10 -4z"/>
<path d="M2700 4546 c0 -2 8 -10 18 -17 15 -13 16 -12 3 4 -13 16 -21 21 -21
13z"/>
<path d="M4119 4463 c-13 -16 -12 -17 4 -4 9 7 17 15 17 17 0 8 -8 3 -21 -13z"/>
<path d="M3739 4423 c-13 -16 -12 -17 4 -4 16 13 21 21 13 21 -2 0 -10 -8 -17
-17z"/>
<path d="M3969 4313 c-13 -16 -12 -17 4 -4 16 13 21 21 13 21 -2 0 -10 -8 -17
-17z"/>
<path d="M3760 4166 c0 -2 8 -10 18 -17 15 -13 16 -12 3 4 -13 16 -21 21 -21
13z"/>
<path d="M6155 5990 c4 -6 11 -8 16 -5 14 9 11 15 -7 15 -8 0 -12 -5 -9 -10z"/>
<path d="M5446 5113 c-6 -14 -5 -15 5 -6 7 7 10 15 7 18 -3 3 -9 -2 -12 -12z"/>
<path d="M5402 5074 c-7 -8 -8 -14 -3 -14 10 0 25 19 20 25 -2 1 -10 -3 -17
-11z"/>
<path d="M4784 4788 l-19 -23 23 19 c12 11 22 21 22 23 0 8 -8 2 -26 -19z"/>
<path d="M1650 5256 c0 -2 8 -10 18 -17 15 -13 16 -12 3 4 -13 16 -21 21 -21
13z"/>
<path d="M2649 2993 c-13 -16 -12 -17 4 -4 16 13 21 21 13 21 -2 0 -10 -8 -17
-17z"/>
<path d="M3549 4573 c-13 -16 -12 -17 4 -4 9 7 17 15 17 17 0 8 -8 3 -21 -13z"/>
<path d="M1950 4276 c0 -2 8 -10 18 -17 15 -13 16 -12 3 4 -13 16 -21 21 -21
13z"/>
<path d="M5626 3562 c-3 -5 1 -9 9 -9 8 0 12 4 9 9 -3 4 -7 8 -9 8 -2 0 -6 -4
-9 -8z"/>
<path d="M2209 3233 c-13 -16 -12 -17 4 -4 16 13 21 21 13 21 -2 0 -10 -8 -17
-17z"/>
<path d="M1919 2943 c-13 -16 -12 -17 4 -4 9 7 17 15 17 17 0 8 -8 3 -21 -13z"/>
<path d="M1769 1533 c-13 -16 -12 -17 4 -4 9 7 17 15 17 17 0 8 -8 3 -21 -13z"/>
<path d="M1399 1163 c-13 -16 -12 -17 4 -4 16 13 21 21 13 21 -2 0 -10 -8 -17
-17z"/>
<path d="M1279 1043 c-13 -16 -12 -17 4 -4 16 13 21 21 13 21 -2 0 -10 -8 -17
-17z"/>
<path d="M1159 923 c-13 -16 -12 -17 4 -4 9 7 17 15 17 17 0 8 -8 3 -21 -13z"/>
<path d="M949 713 c-13 -16 -12 -17 4 -4 16 13 21 21 13 21 -2 0 -10 -8 -17
-17z"/>
<path d="M5990 676 c0 -2 8 -10 18 -17 15 -13 16 -12 3 4 -13 16 -21 21 -21
13z"/>
</g>
</svg>
