<svg width="250" height="68" xmlns="http://www.w3.org/2000/svg">

 <g>
  <title>background</title>
  <rect fill="none" id="canvas_background" height="70" width="252" y="-1" x="-1"/>
 </g>
 <g>
  <title>Layer 1</title>
  <path id="svg_1" fill="white" d="m16.36,16.728c3.4987,0.4053 5.984,1.1627 7.456,2.272c1.4933,1.088 2.24,2.7307 2.24,4.928c0,2.1973 -1.0773,3.9787 -3.232,5.344c-2.1547,1.3653 -5.0133,2.048 -8.576,2.048c-3.56267,0 -6.336,-0.6507 -8.32,-1.952c-1.96267,-1.3227 -2.944,-2.944 -2.944,-4.864c0,-0.4693 0.24533,-0.704 0.736,-0.704l6.56,0c0.448,0 0.8107,0.1387 1.088,0.416c0.5973,0.576 1.632,0.864 3.104,0.864c2.0267,0 3.04,-0.3093 3.04,-0.928c0,-0.384 -0.32,-0.6827 -0.96,-0.896c-0.64,-0.2347 -1.9093,-0.4587 -3.808,-0.672c-6.03733,-0.7253 -9.056,-3.04 -9.056,-6.944c0,-2.1973 0.97067,-3.968 2.912,-5.312c1.94133,-1.36533 4.5333,-2.048 7.776,-2.048c3.264,0 5.8987,0.71467 7.904,2.144c2.0053,1.408 3.008,2.9013 3.008,4.48c0,0.2133 -0.0747,0.384 -0.224,0.512c-0.128,0.128 -0.3093,0.192 -0.544,0.192l-6.88,0c-0.384,0 -0.7147,-0.128 -0.992,-0.384c-0.512,-0.4693 -1.28,-0.704 -2.304,-0.704c-1.4293,0 -2.144,0.2987 -2.144,0.896c0,0.32 0.2773,0.576 0.832,0.768c0.5547,0.1707 1.664,0.352 3.328,0.544zm30.9955,-8.128l5.856,0c0.2347,0 0.4373,0.08533 0.608,0.256c0.1707,0.17067 0.256,0.37333 0.256,0.608l0,20.672c0,0.2347 -0.0853,0.4373 -0.256,0.608c-0.1707,0.1707 -0.3733,0.256 -0.608,0.256l-5.792,0c-0.2347,0 -0.4373,-0.0853 -0.608,-0.256c-0.1707,-0.1707 -0.256,-0.3733 -0.256,-0.608l0,-9.92l-2.336,4.608c-0.128,0.256 -0.32,0.4587 -0.576,0.608c-0.256,0.128 -0.512,0.192 -0.768,0.192l-2.176,0c-0.3627,0 -0.6613,-0.096 -0.896,-0.288c-0.2347,-0.192 -0.384,-0.3627 -0.448,-0.512l-2.336,-4.608l0,9.92c0,0.2347 -0.0853,0.4373 -0.256,0.608c-0.1707,0.1707 -0.3733,0.256 -0.608,0.256l-5.792,0c-0.2347,0 -0.4373,-0.0853 -0.608,-0.256c-0.1707,-0.1707 -0.256,-0.3733 -0.256,-0.608l0,-20.672c0,-0.23467 0.0853,-0.43733 0.256,-0.608c0.1707,-0.17067 0.3733,-0.256 0.608,-0.256l5.856,0c0.5973,0 1.056,0.288 1.376,0.864l4.192,7.68l4.192,-7.68c0.32,-0.576 0.7787,-0.864 1.376,-0.864zm15.5715,22.4l-6.048,0c-0.192,0 -0.3627,-0.064 -0.512,-0.192c-0.128,-0.1493 -0.192,-0.288 -0.192,-0.416c0,-0.128 0.0107,-0.224 0.032,-0.288l6.976,-20.448c0.192,-0.704 0.672,-1.056 1.44,-1.056l8.896,0c0.768,0 1.248,0.352 1.44,1.056l6.976,20.448c0.0213,0.064 0.032,0.16 0.032,0.288c0,0.128 -0.0747,0.2667 -0.224,0.416c-0.128,0.128 -0.288,0.192 -0.48,0.192l-6.048,0c-0.6827,0 -1.1627,-0.3627 -1.44,-1.088l-0.8,-2.24l-7.808,0l-0.8,2.24c-0.2773,0.7253 -0.7573,1.088 -1.44,1.088zm8.416,-9.568l-2.272,-6.656l-2.272,6.656l4.544,0zm37.524,8.576c0.042,0.0853 0.064,0.2027 0.064,0.352c0,0.1493 -0.075,0.2987 -0.224,0.448c-0.128,0.128 -0.288,0.192 -0.48,0.192l-7.2645,0c-0.64,0 -1.088,-0.2667 -1.344,-0.8l-2.816,-6.336l-2.688,0l0,6.272c0,0.2347 -0.0853,0.4373 -0.256,0.608c-0.1707,0.1707 -0.3733,0.256 -0.608,0.256l-6.912,0c-0.2347,0 -0.4373,-0.0853 -0.608,-0.256c-0.1707,-0.1707 -0.256,-0.3733 -0.256,-0.608l0,-20.672c0,-0.23467 0.0853,-0.43733 0.256,-0.608c0.1707,-0.17067 0.3733,-0.256 0.608,-0.256l12.448,0c2.9225,0 5.2375,0.69333 6.9445,2.08c1.706,1.3867 2.56,3.2747 2.56,5.664c0,2.9013 -1.12,5.0027 -3.36,6.304l3.936,7.36zm-14.7525,-15.456l0,3.392l4,0c0.4693,0 0.832,-0.1493 1.088,-0.448c0.256,-0.32 0.384,-0.7147 0.384,-1.184c0,-0.4693 -0.128,-0.8747 -0.384,-1.216c-0.2347,-0.3627 -0.5973,-0.544 -1.088,-0.544l-4,0zm18.1955,-5.952l22.08,0c0.235,0 0.437,0.08533 0.608,0.256c0.171,0.17067 0.256,0.37333 0.256,0.608l0,5.152c0,0.2347 -0.085,0.4373 -0.256,0.608c-0.171,0.1707 -0.373,0.256 -0.608,0.256l-6.88,0l0,14.656c0,0.2347 -0.085,0.4373 -0.256,0.608c-0.171,0.1707 -0.373,0.256 -0.608,0.256l-6.592,0c-0.235,0 -0.437,-0.0853 -0.608,-0.256c-0.171,-0.1707 -0.256,-0.3733 -0.256,-0.608l0,-14.656l-6.88,0c-0.235,0 -0.437,-0.0853 -0.608,-0.256c-0.171,-0.1707 -0.256,-0.3733 -0.256,-0.608l0,-5.152c0,-0.23467 0.085,-0.43733 0.256,-0.608c0.171,-0.17067 0.373,-0.256 0.608,-0.256z"/>
  <path id="svg_2" fill="white" d="m79.9315,44.16l-5.792,0l0,9.28l5.792,0c0.2347,0 0.4373,0.0853 0.608,0.256c0.1707,0.1707 0.256,0.3733 0.256,0.608l0,4.832c0,0.2347 -0.0853,0.4373 -0.256,0.608c-0.1707,0.1707 -0.3733,0.256 -0.608,0.256l-20.288,0c-0.2347,0 -0.4373,-0.0853 -0.608,-0.256c-0.1707,-0.1707 -0.256,-0.3733 -0.256,-0.608l0,-4.832c0,-0.2347 0.0853,-0.4373 0.256,-0.608c0.1707,-0.1707 0.3733,-0.256 0.608,-0.256l5.856,0l0,-9.28l-5.856,0c-0.2347,0 -0.4373,-0.0853 -0.608,-0.256c-0.1707,-0.1707 -0.256,-0.3733 -0.256,-0.608l0,-4.832c0,-0.2347 0.0853,-0.4373 0.256,-0.608c0.1707,-0.1707 0.3733,-0.256 0.608,-0.256l20.288,0c0.2347,0 0.4373,0.0853 0.608,0.256c0.1707,0.1707 0.256,0.3733 0.256,0.608l0,4.832c0,0.2347 -0.0853,0.4373 -0.256,0.608c-0.1707,0.1707 -0.3733,0.256 -0.608,0.256zm21.1075,-6.56l5.952,0c0.235,0 0.437,0.0853 0.608,0.256c0.171,0.1707 0.256,0.3733 0.256,0.608l0,20.672c0,0.2347 -0.085,0.4373 -0.256,0.608c-0.171,0.1707 -0.373,0.256 -0.608,0.256l-5.152,0c-0.512,0 -0.9387,-0.224 -1.28,-0.672l-6.976,-8.896l0,8.704c0,0.2347 -0.0853,0.4373 -0.256,0.608c-0.1707,0.1707 -0.3733,0.256 -0.608,0.256l-5.952,0c-0.2347,0 -0.4373,-0.0853 -0.608,-0.256c-0.1707,-0.1707 -0.256,-0.3733 -0.256,-0.608l0,-20.672c0,-0.2347 0.0853,-0.4373 0.256,-0.608c0.1707,-0.1707 0.3733,-0.256 0.608,-0.256l5.184,0c0.512,0 0.928,0.2133 1.248,0.64l6.976,9.632l0,-9.408c0,-0.2347 0.0853,-0.4373 0.256,-0.608c0.1707,-0.1707 0.3733,-0.256 0.608,-0.256zm28.244,0l6.752,0c0.192,0 0.352,0.0747 0.48,0.224c0.149,0.128 0.224,0.256 0.224,0.384c0,0.128 -0.011,0.2347 -0.032,0.32l-7.36,20.416c-0.235,0.704 -0.715,1.056 -1.44,1.056l-7.456,0c-0.704,0 -1.174,-0.32 -1.408,-0.96l-7.425,-20.512c-0.021,-0.0853 -0.031,-0.192 -0.031,-0.32c0,-0.128 0.064,-0.256 0.192,-0.384c0.149,-0.1493 0.32,-0.224 0.512,-0.224l6.752,0c0.384,0 0.693,0.1173 0.927,0.352c0.257,0.2133 0.427,0.448 0.513,0.704l3.68,12.256l3.68,-12.256c0.192,-0.704 0.672,-1.056 1.44,-1.056zm33.971,9.248l0,3.904c0,2.1973 -0.533,4.032 -1.6,5.504c-1.067,1.472 -2.464,2.5173 -4.192,3.136c-1.728,0.6187 -3.765,0.928 -6.112,0.928c-2.347,0 -4.384,-0.3093 -6.112,-0.928c-1.728,-0.6187 -3.125,-1.664 -4.192,-3.136c-1.067,-1.472 -1.6,-3.328 -1.6,-5.568l0,-3.776c0,-3.2213 1.099,-5.632 3.296,-7.232c2.219,-1.6 5.088,-2.4 8.608,-2.4c3.52,0 6.379,0.8 8.576,2.4c2.219,1.6 3.328,3.9893 3.328,7.168zm-15.168,-0.608l0,5.12c0,0.8747 0.288,1.5467 0.864,2.016c0.597,0.4693 1.397,0.704 2.4,0.704c1.003,0 1.792,-0.2347 2.368,-0.704c0.597,-0.4907 0.896,-1.1733 0.896,-2.048l0,-5.056c0,-0.8747 -0.299,-1.5467 -0.896,-2.016c-0.576,-0.4907 -1.365,-0.736 -2.368,-0.736c-1.003,0 -1.803,0.2347 -2.4,0.704c-0.576,0.4693 -0.864,1.1413 -0.864,2.016zm40.596,-2.08l-5.792,0l0,9.28l5.792,0c0.234,0 0.437,0.0853 0.608,0.256c0.17,0.1707 0.256,0.3733 0.256,0.608l0,4.832c0,0.2347 -0.086,0.4373 -0.256,0.608c-0.171,0.1707 -0.374,0.256 -0.608,0.256l-20.288,0c-0.235,0 -0.438,-0.0853 -0.608,-0.256c-0.171,-0.1707 -0.256,-0.3733 -0.256,-0.608l0,-4.832c0,-0.2347 0.085,-0.4373 0.256,-0.608c0.17,-0.1707 0.373,-0.256 0.608,-0.256l5.856,0l0,-9.28l-5.856,0c-0.235,0 -0.438,-0.0853 -0.608,-0.256c-0.171,-0.1707 -0.256,-0.3733 -0.256,-0.608l0,-4.832c0,-0.2347 0.085,-0.4373 0.256,-0.608c0.17,-0.1707 0.373,-0.256 0.608,-0.256l20.288,0c0.234,0 0.437,0.0853 0.608,0.256c0.17,0.1707 0.256,0.3733 0.256,0.608l0,4.832c0,0.2347 -0.086,0.4373 -0.256,0.608c-0.171,0.1707 -0.374,0.256 -0.608,0.256zm14.099,2.08l0,5.12c0,0.8747 0.288,1.5467 0.864,2.016c0.597,0.4693 1.365,0.704 2.304,0.704c0.96,0 1.653,-0.1493 2.08,-0.448c0.427,-0.2987 0.779,-0.736 1.056,-1.312c0.299,-0.576 0.683,-0.864 1.152,-0.864l6.912,0c0.192,0 0.352,0.0747 0.48,0.224c0.149,0.128 0.224,0.288 0.224,0.48c0,1.984 -0.939,3.7973 -2.816,5.44c-0.939,0.8107 -2.187,1.472 -3.744,1.984c-1.557,0.4907 -3.392,0.736 -5.504,0.736c-2.112,0 -4.043,-0.32 -5.792,-0.96c-1.728,-0.6613 -3.136,-1.728 -4.224,-3.2c-1.088,-1.4933 -1.632,-3.3173 -1.632,-5.472l0,-3.776c0,-2.1547 0.544,-3.9787 1.632,-5.472c2.048,-2.7733 5.472,-4.16 10.272,-4.16c1.941,0 3.691,0.256 5.248,0.768c1.557,0.4907 2.805,1.1413 3.744,1.952c1.877,1.6427 2.816,3.456 2.816,5.44c0,0.192 -0.075,0.3627 -0.224,0.512c-0.128,0.128 -0.288,0.192 -0.48,0.192l-6.912,0c-0.469,0 -0.853,-0.288 -1.152,-0.864c-0.277,-0.576 -0.629,-1.0133 -1.056,-1.312c-0.427,-0.2987 -1.12,-0.448 -2.08,-0.448c-0.939,0 -1.707,0.2347 -2.304,0.704c-0.576,0.4693 -0.864,1.1413 -0.864,2.016zm27.732,7.52l12.768,0c0.234,0 0.437,0.0853 0.608,0.256c0.17,0.1707 0.256,0.3733 0.256,0.608l0,4.512c0,0.2347 -0.086,0.4373 -0.256,0.608c-0.171,0.1707 -0.374,0.256 -0.608,0.256l-20.224,0c-0.235,0 -0.438,-0.0853 -0.608,-0.256c-0.171,-0.1707 -0.256,-0.3733 -0.256,-0.608l0,-20.672c0,-0.2347 0.085,-0.4373 0.256,-0.608c0.17,-0.1707 0.373,-0.256 0.608,-0.256l19.904,0c0.234,0 0.437,0.0853 0.608,0.256c0.17,0.1707 0.256,0.3733 0.256,0.608l0,4.512c0,0.2347 -0.086,0.4373 -0.256,0.608c-0.171,0.1707 -0.374,0.256 -0.608,0.256l-12.448,0l0,2.016l10.688,0c0.234,0 0.437,0.0853 0.608,0.256c0.17,0.1707 0.256,0.3733 0.256,0.608l0,4.16c0,0.2347 -0.086,0.4373 -0.256,0.608c-0.171,0.1707 -0.374,0.256 -0.608,0.256l-10.688,0l0,2.016z"/>
 </g>
</svg>