<svg width="48" height="48" viewBox="0 0 48 48" fill="none" xmlns="http://www.w3.org/2000/svg">
<g clip-path="url(#clip0_89_1625)">
<path d="M33.5334 31.2743C35.0782 29.2542 35.999 26.7324 35.999 23.9981C35.999 21.3567 35.1392 18.9138 33.6872 16.93C33.6835 16.9244 33.6792 16.919 33.6755 16.9138C31.4899 13.9373 27.9679 12.0005 24.0003 12.0005C17.3841 12.0005 12.0017 17.3824 12.0017 23.9981C12.0017 30.6148 17.3831 35.9981 23.9989 35.9992H23.999H23.9992H23.9998C24.0003 35.9992 24.0005 35.9992 24.0011 35.9992C24.0016 35.9992 24.0024 35.9992 24.0029 35.9992C27.8186 35.9983 31.2215 34.2046 33.4201 31.4187C33.4218 31.417 33.4238 31.4157 33.4255 31.4142C33.4673 31.3709 33.503 31.3236 33.5337 31.2743L33.5334 31.2743ZM32.6761 29.581C31.9979 29.0141 31.2726 28.5191 30.5092 28.1C30.8599 26.892 31.0751 25.5298 31.0751 23.9986C31.0751 22.6068 30.896 21.3561 30.6004 20.2322C31.3896 19.79 32.1372 19.2661 32.8336 18.6645C33.7778 20.2221 34.3221 22.0481 34.3221 23.9988C34.3219 26.0544 33.7157 27.9701 32.6761 29.5811L32.6761 29.581ZM18.6608 23.9981C18.6608 22.9016 18.7877 21.9033 19.0014 20.995C20.3182 21.5177 21.7185 21.8313 23.1622 21.9189V26.4621C21.7527 26.5482 20.3824 26.8501 19.0903 27.3521C18.8238 26.3523 18.6608 25.2384 18.6608 23.9981V23.9981ZM24.839 14.3972C25.9578 15.2673 27.5789 16.8701 28.5562 19.3672C27.3834 19.8549 26.1311 20.1484 24.839 20.2381V14.3972ZM23.1622 14.4244V20.2386C21.8899 20.1503 20.6567 19.864 19.4997 19.3899C20.4632 16.9196 22.0545 15.3101 23.1622 14.4246V14.4244ZM23.1622 28.1434V33.5758C22.105 32.7302 20.6083 31.2235 19.6356 28.9394C20.7539 28.4977 21.941 28.2289 23.1622 28.1435V28.1434ZM24.839 33.6034V28.1434C26.0795 28.2301 27.286 28.5052 28.4206 28.9605C27.4336 31.2712 25.9076 32.7723 24.839 33.6032V33.6034ZM24.8389 26.4624V21.9193C26.3032 21.8302 27.7227 21.5095 29.0555 20.9733C29.2703 21.886 29.3981 22.8914 29.3981 23.9984C29.3981 25.2494 29.2346 26.37 28.9664 27.3741C27.6581 26.8587 26.2683 26.5499 24.8389 26.4624ZM31.8457 17.3024C31.288 17.7955 30.6925 18.2329 30.0644 18.6081C29.2729 16.6549 28.1345 15.1906 27.0828 14.1479C28.9561 14.7349 30.599 15.8443 31.8457 17.3024ZM20.9909 14.1263C19.9367 15.1791 18.786 16.6631 17.989 18.6386C17.3413 18.2567 16.7277 17.8103 16.1544 17.304C17.417 15.8263 19.0872 14.7076 20.991 14.1264L20.9909 14.1263ZM15.1666 18.6659C15.8792 19.2809 16.645 19.8153 17.4543 20.2636C17.1612 21.381 16.9839 22.6217 16.9839 23.9985C16.9839 25.5147 17.1975 26.8676 17.5455 28.0698C16.7624 28.4954 16.0189 29.0004 15.3249 29.5809C14.2851 27.9701 13.6787 26.0543 13.6787 23.9985C13.679 22.0484 14.2231 20.2231 15.1666 18.6662L15.1666 18.6659ZM16.344 30.914C16.9013 30.4421 17.4955 30.0249 18.1207 29.6674C18.9099 31.4897 19.9929 32.8763 20.991 33.8734C19.182 33.3208 17.5825 32.2842 16.344 30.914ZM27.0831 33.8517C28.0786 32.8645 29.1495 31.4968 29.9326 29.6965C30.5388 30.0472 31.1147 30.4549 31.6571 30.9138C30.4356 32.2657 28.8625 33.2938 27.0831 33.8516V33.8517Z" fill="#707683"/>
</g>
<rect x="0.5" y="0.5" width="47" height="47" rx="23.5" stroke="#C2CFE0" stroke-opacity="0.4"/>
<defs>
<clipPath id="clip0_89_1625">
<rect width="24" height="24" fill="white" transform="translate(12 12)"/>
</clipPath>
</defs>
</svg>
